<?xml version="1.0" standalone="no"?>
<!DOCTYPE svg PUBLIC "-//W3C//DTD SVG 1.1//EN" "https://www.w3.org/Graphics/SVG/1.1/DTD/svg11.dtd" >
<svg xmlns="https://www.w3.org/2000/svg">
<metadata>Generated by IcoMoon</metadata>
<defs>
<font id="pe-laundry-icons" horiz-adv-x="1024">
<font-face units-per-em="1024" ascent="960" descent="-64" />
<missing-glyph horiz-adv-x="1024" />
<glyph unicode="&#x20;" d="" horiz-adv-x="512" />
<glyph unicode="&#xe600;" d="M832 72c0 0 0 0 0 0h-800c-8 0-16 4.8-20.8 11.2-4.8 8-4.8 16 0 24l401.6 704c4.8 8 12.8 12.8 20.8 12.8 0 0 0 0 0 0 8 0 16-4.8 20.8-12.8l396.8-700.8c3.2-4.8 4.8-9.6 4.8-14.4 0-12.8-11.2-24-24-24zM73.6 120h716.8l-356.8 632-360-632zM376 200c-44.8 0-80 35.2-80 80v32c0 44.8 35.2 80 80 80 22.4 0 41.6-8 57.6-24 9.6-9.6 9.6-24 0-33.6s-24-9.6-33.6 0c-6.4 6.4-14.4 9.6-22.4 9.6-17.6 0-32-14.4-32-32v-32c0-17.6 14.4-32 32-32 8 0 17.6 3.2 22.4 9.6 9.6 9.6 24 9.6 33.6 0s9.6-24 0-33.6c-16-16-35.2-24-57.6-24zM512 200c-12.8 0-24 11.2-24 24v224c0 12.8 11.2 24 24 24s24-11.2 24-24v-224c0-12.8-11.2-24-24-24z" horiz-adv-x="864" />
<glyph unicode="&#xe601;" d="M851.2 110.4l-396.8 700.8c-4.8 8-12.8 12.8-20.8 12.8 0 0 0 0 0 0-8 0-16-4.8-20.8-12.8l-401.6-704c-4.8-8-4.8-16 0-24 4.8-6.4 12.8-11.2 20.8-11.2h800c0 0 0 0 0 0 12.8 0 24 11.2 24 24 0 6.4-1.6 11.2-4.8 14.4zM299.2 120l246.4 432 84.8-148.8-161.6-283.2h-169.6zM433.6 752l84.8-150.4-273.6-481.6h-171.2l360 632zM523.2 120l134.4 235.2 132.8-235.2h-267.2z" horiz-adv-x="864" />
<glyph unicode="&#xe602;" d="M832 72c0 0 0 0 0 0h-800c-8 0-16 4.8-20.8 11.2-4.8 8-4.8 16 0 24l401.6 704c4.8 8 12.8 12.8 20.8 12.8 0 0 0 0 0 0 8 0 16-4.8 20.8-12.8l396.8-700.8c3.2-4.8 4.8-9.6 4.8-14.4 0-12.8-11.2-24-24-24zM73.6 120h716.8l-356.8 632-360-632z" horiz-adv-x="864" />
<glyph unicode="&#xe603;" d="M416 200c208 0 376 168 376 376s-168 376-376 376-376-168-376-376 168-376 376-376zM416 904c180.8 0 328-147.2 328-328s-147.2-328-328-328-328 147.2-328 328 147.2 328 328 328zM260.8 435.2c11.2-6.4 25.6-1.6 32 9.6l32 59.2h182.4l32-59.2c4.8-8 12.8-12.8 20.8-12.8 3.2 0 8 1.6 11.2 3.2 11.2 6.4 16 20.8 9.6 32l-144 272c-3.2 8-11.2 12.8-20.8 12.8s-17.6-4.8-20.8-12.8l-144-272c-6.4-11.2-1.6-25.6 9.6-32zM416 676.8l65.6-124.8h-132.8l67.2 124.8zM32 72h768c12.8 0 24 11.2 24 24s-11.2 24-24 24h-768c-12.8 0-24-11.2-24-24s11.2-24 24-24zM800-8h-768c-12.8 0-24-11.2-24-24s11.2-24 24-24h768c12.8 0 24 11.2 24 24s-11.2 24-24 24z" horiz-adv-x="832" />
<glyph unicode="&#xe604;" d="M393.6 678.4c-4.8 8-12.8 12.8-20.8 12.8-9.6 0-17.6-4.8-20.8-12.8l-128-256c-6.4-11.2-1.6-25.6 11.2-32 3.2-1.6 6.4-3.2 11.2-3.2 9.6 0 17.6 4.8 20.8 12.8l25.6 51.2h161.6l25.6-51.2c6.4-11.2 20.8-16 32-11.2 11.2 6.4 16 20.8 11.2 32l-129.6 257.6zM315.2 500.8l57.6 113.6 57.6-113.6h-115.2zM731.2 524.8c0 198.4-161.6 360-360 360s-360-161.6-360-360 161.6-360 360-360 360 161.6 360 360zM371.2 212.8c-171.2 0-312 139.2-312 312s140.8 312 312 312 312-139.2 312-312-139.2-312-312-312zM876.8 396.8c-9.6 9.6-24 9.6-33.6 0l-344-344c-9.6-9.6-9.6-24 0-33.6 4.8-4.8 11.2-6.4 17.6-6.4s12.8 1.6 17.6 6.4l345.6 345.6c6.4 8 6.4 24-3.2 32z" horiz-adv-x="896" />
<glyph unicode="&#xe605;" d="M548.8 523.2c-4.8 8-12.8 12.8-20.8 12.8s-17.6-4.8-20.8-12.8l-128-256c-6.4-11.2-1.6-25.6 11.2-32 3.2-1.6 6.4-3.2 11.2-3.2 9.6 0 17.6 4.8 20.8 12.8l25.6 51.2h161.6l25.6-51.2c6.4-11.2 20.8-16 32-11.2 11.2 6.4 16 20.8 11.2 32l-129.6 257.6zM470.4 344l57.6 113.6 57.6-113.6h-115.2zM528 728c-198.4 0-360-161.6-360-360s161.6-360 360-360 360 161.6 360 360-161.6 360-360 360zM528 56c-172.8 0-312 139.2-312 312s139.2 312 312 312 312-139.2 312-312-140.8-312-312-312zM393.6 881.6c-9.6 9.6-24 9.6-33.6 0l-345.6-345.6c-9.6-9.6-9.6-24 0-33.6 4.8-4.8 11.2-6.4 17.6-6.4s12.8 1.6 17.6 6.4l344 344c9.6 9.6 9.6 25.6 0 35.2z" horiz-adv-x="896" />
<glyph unicode="&#xe606;" d="M393.6 523.2c-4.8 8-12.8 12.8-20.8 12.8s-17.6-4.8-20.8-12.8l-128-256c-6.4-11.2-1.6-25.6 11.2-32 3.2-1.6 6.4-3.2 11.2-3.2 9.6 0 17.6 4.8 20.8 12.8l25.6 51.2h161.6l25.6-51.2c6.4-11.2 20.8-16 32-11.2 11.2 6.4 16 20.8 11.2 32l-129.6 257.6zM315.2 344l57.6 113.6 57.6-113.6h-115.2zM371.2 728c-198.4 0-360-161.6-360-360s161.6-360 360-360 360 161.6 360 360-161.6 360-360 360zM371.2 56c-171.2 0-312 140.8-312 312s139.2 312 312 312 312-139.2 312-312-139.2-312-312-312zM876.8 536l-344 345.6c-9.6 9.6-24 9.6-33.6 0s-9.6-24 0-33.6l345.6-345.6c4.8-4.8 11.2-6.4 17.6-6.4s12.8 1.6 17.6 6.4c6.4 9.6 6.4 24-3.2 33.6z" horiz-adv-x="896" />
<glyph unicode="&#xe607;" d="M416 104c225.6 0 408 182.4 408 408s-182.4 408-408 408-408-182.4-408-408 182.4-408 408-408zM416 872c198.4 0 360-161.6 360-360s-161.6-360-360-360-360 161.6-360 360 161.6 360 360 360zM260.8 371.2c11.2-6.4 25.6-1.6 32 9.6l32 59.2h182.4l32-59.2c4.8-8 12.8-12.8 20.8-12.8 3.2 0 8 1.6 11.2 3.2 11.2 6.4 16 20.8 9.6 32l-144 272c-3.2 8-11.2 12.8-20.8 12.8s-17.6-4.8-20.8-12.8l-144-272c-6.4-11.2-1.6-25.6 9.6-32zM416 612.8l65.6-124.8h-132.8l67.2 124.8zM800 24h-768c-12.8 0-24-11.2-24-24s11.2-24 24-24h768c12.8 0 24 11.2 24 24s-11.2 24-24 24z" horiz-adv-x="832" />
<glyph unicode="&#xe608;" d="M548.8 678.4c-4.8 8-12.8 12.8-20.8 12.8s-17.6-4.8-20.8-12.8l-128-256c-6.4-11.2-1.6-25.6 11.2-32 3.2-1.6 6.4-3.2 11.2-3.2 9.6 0 17.6 4.8 20.8 12.8l25.6 51.2h161.6l25.6-51.2c6.4-11.2 20.8-16 32-11.2 11.2 6.4 16 20.8 11.2 32l-129.6 257.6zM470.4 500.8l57.6 113.6 57.6-113.6h-115.2zM528 884.8c-198.4 0-360-161.6-360-360s161.6-360 360-360 360 161.6 360 360-161.6 360-360 360zM528 212.8c-172.8 0-312 139.2-312 312s139.2 312 312 312 312-139.2 312-312-140.8-312-312-312zM49.6 396.8c-9.6 9.6-24 9.6-33.6 0s-9.6-24 0-33.6l345.6-345.6c4.8-4.8 11.2-6.4 17.6-6.4s12.8 1.6 17.6 6.4c9.6 9.6 9.6 24 0 33.6l-347.2 345.6z" horiz-adv-x="896" />
<glyph unicode="&#xe609;" d="M416 856c-225.6 0-408-182.4-408-408s182.4-408 408-408 408 182.4 408 408-182.4 408-408 408zM416 88c-198.4 0-360 161.6-360 360s161.6 360 360 360 360-161.6 360-360-161.6-360-360-360zM436.8 611.2c-3.2 8-11.2 12.8-20.8 12.8s-17.6-4.8-20.8-12.8l-144-272c-6.4-11.2-1.6-25.6 9.6-32s25.6-1.6 32 9.6l32 59.2h182.4l32-59.2c4.8-8 12.8-12.8 20.8-12.8 3.2 0 8 1.6 11.2 3.2 11.2 6.4 16 20.8 9.6 32l-144 272zM350.4 424l65.6 124.8 65.6-124.8h-131.2z" horiz-adv-x="832" />
<glyph unicode="&#xe60a;" d="M368 168c-198.4 0-360 161.6-360 360s161.6 360 360 360 360-161.6 360-360-161.6-360-360-360zM368 840c-171.2 0-312-140.8-312-312s140.8-312 312-312 312 139.2 312 312-139.2 312-312 312zM518.4 8c-6.4 0-12.8 1.6-17.6 6.4-9.6 9.6-9.6 24 0 33.6l345.6 345.6c9.6 9.6 24 9.6 33.6 0s9.6-24 0-33.6l-344-345.6c-4.8-4.8-11.2-6.4-17.6-6.4z" horiz-adv-x="896" />
<glyph unicode="&#xe60b;" d="M528 8c-198.4 0-360 161.6-360 360s161.6 360 360 360 360-161.6 360-360-161.6-360-360-360zM528 680c-172.8 0-312-139.2-312-312s139.2-312 312-312 312 140.8 312 312-140.8 312-312 312zM32 494.4c-6.4 0-12.8 1.6-17.6 6.4-9.6 9.6-9.6 24 0 33.6l345.6 347.2c9.6 9.6 24 9.6 33.6 0s9.6-24 0-33.6l-344-345.6c-4.8-4.8-11.2-8-17.6-8z" horiz-adv-x="896" />
<glyph unicode="&#xe60c;" d="M368 8c-198.4 0-360 161.6-360 360s161.6 360 360 360 360-161.6 360-360-161.6-360-360-360zM368 680c-171.2 0-312-139.2-312-312s140.8-312 312-312 312 140.8 312 312-139.2 312-312 312zM864 494.4c-6.4 0-12.8 1.6-17.6 6.4l-344 345.6c-9.6 9.6-9.6 24 0 33.6s24 9.6 33.6 0l345.6-345.6c9.6-9.6 9.6-24 0-33.6-4.8-3.2-11.2-6.4-17.6-6.4z" horiz-adv-x="896" />
<glyph unicode="&#xe60d;" d="M416 200c-208 0-376 168-376 376s168 376 376 376 376-168 376-376-168-376-376-376zM416 904c-180.8 0-328-147.2-328-328s147.2-328 328-328 328 147.2 328 328-147.2 328-328 328zM336 400c-12.8 0-24 11.2-24 24v280c0 12.8 11.2 24 24 24s24-11.2 24-24v-280c0-12.8-11.2-24-24-24zM440 505.6h-104c-12.8 0-24 11.2-24 24s11.2 24 24 24h104c35.2 0 64 28.8 64 64s-28.8 64-64 64h-104c-12.8 0-24 11.2-24 24s11.2 24 24 24h104c60.8 0 112-49.6 112-112s-49.6-112-112-112zM800 72h-768c-12.8 0-24 11.2-24 24s11.2 24 24 24h768c12.8 0 24-11.2 24-24s-11.2-24-24-24zM800-56h-768c-12.8 0-24 11.2-24 24s11.2 24 24 24h768c12.8 0 24-11.2 24-24s-11.2-24-24-24z" horiz-adv-x="832" />
<glyph unicode="&#xe60e;" d="M416 104c-225.6 0-408 182.4-408 408s182.4 408 408 408 408-182.4 408-408-182.4-408-408-408zM416 872c-198.4 0-360-161.6-360-360s161.6-360 360-360 360 161.6 360 360-161.6 360-360 360zM336 336c-12.8 0-24 11.2-24 24v280c0 12.8 11.2 24 24 24s24-11.2 24-24v-280c0-12.8-11.2-24-24-24zM440 441.6h-104c-12.8 0-24 11.2-24 24s11.2 24 24 24h104c35.2 0 64 28.8 64 64s-28.8 64-64 64h-104c-12.8 0-24 11.2-24 24s11.2 24 24 24h104c60.8 0 112-49.6 112-112s-49.6-112-112-112zM800-24h-768c-12.8 0-24 11.2-24 24s11.2 24 24 24h768c12.8 0 24-11.2 24-24s-11.2-24-24-24z" horiz-adv-x="832" />
<glyph unicode="&#xe60f;" d="M416 40c-225.6 0-408 182.4-408 408s182.4 408 408 408 408-182.4 408-408-182.4-408-408-408zM416 808c-198.4 0-360-161.6-360-360s161.6-360 360-360 360 161.6 360 360-161.6 360-360 360zM336 272c-12.8 0-24 11.2-24 24v280c0 12.8 11.2 24 24 24s24-11.2 24-24v-280c0-12.8-11.2-24-24-24zM440 377.6h-104c-12.8 0-24 11.2-24 24s11.2 24 24 24h104c35.2 0 64 28.8 64 64s-28.8 64-64 64h-104c-12.8 0-24 11.2-24 24s11.2 24 24 24h104c60.8 0 112-49.6 112-112s-49.6-112-112-112z" horiz-adv-x="832" />
<glyph unicode="&#xe610;" d="M416 200c-208 0-376 168-376 376s168 376 376 376 376-168 376-376-168-376-376-376zM416 904c-180.8 0-328-147.2-328-328s147.2-328 328-328 328 147.2 328 328-147.2 328-328 328zM336 400c-12.8 0-24 11.2-24 24v272c0 12.8 11.2 24 24 24h192c12.8 0 24-11.2 24-24s-11.2-24-24-24h-168v-248c0-12.8-11.2-24-24-24zM496 536h-160c-12.8 0-24 11.2-24 24s11.2 24 24 24h160c12.8 0 24-11.2 24-24s-11.2-24-24-24zM800 72h-768c-12.8 0-24 11.2-24 24s11.2 24 24 24h768c12.8 0 24-11.2 24-24s-11.2-24-24-24zM800-56h-768c-12.8 0-24 11.2-24 24s11.2 24 24 24h768c12.8 0 24-11.2 24-24s-11.2-24-24-24z" horiz-adv-x="832" />
<glyph unicode="&#xe611;" d="M416 104c-225.6 0-408 182.4-408 408s182.4 408 408 408 408-182.4 408-408-182.4-408-408-408zM416 872c-198.4 0-360-161.6-360-360s161.6-360 360-360 360 161.6 360 360-161.6 360-360 360zM336 336c-12.8 0-24 11.2-24 24v272c0 12.8 11.2 24 24 24h192c12.8 0 24-11.2 24-24s-11.2-24-24-24h-168v-248c0-12.8-11.2-24-24-24zM496 472h-160c-12.8 0-24 11.2-24 24s11.2 24 24 24h160c12.8 0 24-11.2 24-24s-11.2-24-24-24zM800-24h-768c-12.8 0-24 11.2-24 24s11.2 24 24 24h768c12.8 0 24-11.2 24-24s-11.2-24-24-24z" horiz-adv-x="832" />
<glyph unicode="&#xe612;" d="M416 40c-225.6 0-408 182.4-408 408s182.4 408 408 408 408-182.4 408-408-182.4-408-408-408zM416 808c-198.4 0-360-161.6-360-360s161.6-360 360-360 360 161.6 360 360-161.6 360-360 360zM336 272c-12.8 0-24 11.2-24 24v272c0 12.8 11.2 24 24 24h192c12.8 0 24-11.2 24-24s-11.2-24-24-24h-168v-248c0-12.8-11.2-24-24-24zM496 408h-160c-12.8 0-24 11.2-24 24s11.2 24 24 24h160c12.8 0 24-11.2 24-24s-11.2-24-24-24z" horiz-adv-x="832" />
<glyph unicode="&#xe613;" d="M528 168c-198.4 0-360 161.6-360 360s161.6 360 360 360 360-161.6 360-360-161.6-360-360-360zM528 840c-172.8 0-312-139.2-312-312s139.2-312 312-312 312 139.2 312 312-140.8 312-312 312zM377.6 8c-6.4 0-12.8 1.6-17.6 6.4l-345.6 345.6c-9.6 9.6-9.6 24 0 33.6s24 9.6 33.6 0l345.6-345.6c9.6-9.6 9.6-24 0-33.6-4.8-4.8-11.2-6.4-16-6.4z" horiz-adv-x="896" />
<glyph unicode="&#xe614;" d="M416 40c-225.6 0-408 182.4-408 408s182.4 408 408 408 408-182.4 408-408-182.4-408-408-408zM416 808c-198.4 0-360-161.6-360-360s161.6-360 360-360 360 161.6 360 360-161.6 360-360 360z" horiz-adv-x="832" />
<glyph unicode="&#xe615;" d="M800 856h-768c-12.8 0-24-11.2-24-24v-768c0-12.8 11.2-24 24-24h768c12.8 0 24 11.2 24 24v768c0 12.8-11.2 24-24 24zM238.4 593.6c0 0 0 0 0 0l-182.4-184v140.8l257.6 257.6h140.8l-216-214.4zM246.4 808l-190.4-190.4v190.4h190.4zM776 88h-720v254.4l176 176v-262.4c0-12.8 11.2-24 24-24s24 11.2 24 24v310.4l241.6 241.6h254.4v-720zM416 664c-12.8 0-24-11.2-24-24v-384c0-12.8 11.2-24 24-24s24 11.2 24 24v384c0 12.8-11.2 24-24 24zM576 232c12.8 0 24 11.2 24 24v384c0 12.8-11.2 24-24 24s-24-11.2-24-24v-384c0-12.8 11.2-24 24-24z" horiz-adv-x="832" />
<glyph unicode="&#xe616;" d="M800 40h-768c-12.8 0-24 11.2-24 24v768c0 12.8 11.2 24 24 24h768c12.8 0 24-11.2 24-24v-768c0-12.8-11.2-24-24-24zM56 88h720v720h-720v-720zM416 232c-12.8 0-24 11.2-24 24v384c0 12.8 11.2 24 24 24s24-11.2 24-24v-384c0-12.8-11.2-24-24-24zM576 232c-12.8 0-24 11.2-24 24v384c0 12.8 11.2 24 24 24s24-11.2 24-24v-384c0-12.8-11.2-24-24-24zM256 232c-12.8 0-24 11.2-24 24v384c0 12.8 11.2 24 24 24s24-11.2 24-24v-384c0-12.8-11.2-24-24-24z" horiz-adv-x="832" />
<glyph unicode="&#xe617;" d="M796.8 856h-768c-12.8 0-24-11.2-24-24v-768c0-12.8 11.2-24 24-24h768c12.8 0 24 11.2 24 24v768c0 12.8-9.6 24-24 24zM52.8 550.4l259.2 257.6h140.8l-400-398.4v140.8zM243.2 808l-190.4-190.4v190.4h190.4zM772.8 88h-720v254.4l467.2 465.6h254.4v-720zM219.2 472c-12.8 0-24-11.2-24-24s11.2-24 24-24h384c12.8 0 24 11.2 24 24s-11.2 24-24 24h-384z" horiz-adv-x="832" />
<glyph unicode="&#xe618;" d="M800 40h-768c-12.8 0-24 11.2-24 24v768c0 12.8 11.2 24 24 24h768c12.8 0 24-11.2 24-24v-768c0-12.8-11.2-24-24-24zM56 88h720v720h-720v-720zM606.4 424h-384c-12.8 0-24 11.2-24 24s11.2 24 24 24h384c12.8 0 24-11.2 24-24s-11.2-24-24-24z" horiz-adv-x="832" />
<glyph unicode="&#xe619;" d="M824 833.6c0 1.6 0 1.6 0 3.2 0 0 0 1.6 0 1.6s0 1.6 0 1.6c0 0 0 1.6-1.6 1.6 0 0 0 1.6-1.6 1.6 0 0-1.6 1.6-1.6 1.6s-1.6 1.6-1.6 1.6c0 0-1.6 1.6-1.6 1.6s0 0-1.6 1.6c0 0 0 0 0 0s-1.6 1.6-1.6 1.6c0 0-1.6 0-1.6 1.6 0 0-1.6 0-1.6 0s-1.6 0-1.6 0c0 0-1.6 0-1.6 0-1.6 0-1.6 0-3.2 0 0 0 0 0 0 0h-771.2c-12.8 3.2-24-8-24-20.8v-768c0-12.8 11.2-24 24-24h768c12.8 0 24 11.2 24 24v769.6c0-1.6 0 0 0 0zM56 550.4l257.6 257.6h140.8l-142.4-142.4c0 0 0 0 0 0l-256-256v140.8zM521.6 808h227.2c-86.4-92.8-204.8-144-332.8-144-12.8 0-24 0-36.8 1.6l142.4 142.4zM246.4 808l-190.4-190.4v190.4h190.4zM56 88v254.4l280 280c25.6-4.8 52.8-6.4 80-6.4 137.6 0 265.6 54.4 360 152v-680h-720z" horiz-adv-x="832" />
<glyph unicode="&#xe61a;" d="M800 40h-768c-12.8 0-24 11.2-24 24v768c0 12.8 11.2 24 24 24h768c12.8 0 24-11.2 24-24v-768c0-12.8-11.2-24-24-24zM56 88h720v720h-720v-720zM416 616c-160 0-307.2 73.6-403.2 201.6-8 11.2-6.4 25.6 4.8 33.6s25.6 6.4 33.6-4.8c86.4-115.2 220.8-182.4 364.8-182.4 145.6 0 278.4 67.2 364.8 182.4 8 11.2 22.4 12.8 33.6 4.8s12.8-22.4 4.8-33.6c-96-128-243.2-201.6-403.2-201.6z" horiz-adv-x="832" />
<glyph unicode="&#xe61b;" d="M864-56h-704c-11.2 0-20.8 8-24 19.2l-128 608c-3.2 12.8 4.8 25.6 19.2 28.8 12.8 3.2 25.6-4.8 28.8-19.2l123.2-588.8h665.6l123.2 588.8c3.2 12.8 16 20.8 28.8 19.2 12.8-3.2 20.8-16 19.2-28.8l-128-608c-3.2-11.2-12.8-19.2-24-19.2zM152 392c-44.8 0-89.6 22.4-115.2 59.2-8 11.2-6.4 25.6 4.8 33.6s25.6 6.4 33.6-4.8c17.6-25.6 46.4-38.4 76.8-38.4 33.6 0 54.4 6.4 73.6 25.6 9.6 9.6 24 9.6 33.6 0s9.6-24 0-33.6c-28.8-30.4-60.8-41.6-107.2-41.6zM872 392c-43.2 0-83.2 19.2-110.4 51.2-8 9.6-6.4 25.6 3.2 33.6s25.6 6.4 33.6-3.2c17.6-22.4 44.8-35.2 73.6-35.2 30.4 0 59.2 14.4 76.8 38.4 8 11.2 22.4 12.8 33.6 4.8s12.8-22.4 4.8-33.6c-25.6-33.6-70.4-56-115.2-56zM256 200c-19.2 0-36.8 6.4-51.2 20.8-14.4 12.8-20.8 32-20.8 51.2s8 36.8 20.8 51.2l225.6 224c9.6 9.6 24 9.6 33.6 0s9.6-24 0-33.6l-225.6-225.6c-4.8-4.8-6.4-11.2-6.4-17.6s3.2-12.8 6.4-17.6c9.6-9.6 24-9.6 33.6 0l227.2 212.8c9.6 9.6 25.6 8 33.6-1.6 9.6-9.6 8-25.6-1.6-33.6l-225.6-209.6c-12.8-14.4-30.4-20.8-49.6-20.8zM377.6 147.2c-19.2 0-35.2 6.4-49.6 19.2-28.8 27.2-30.4 73.6-3.2 102.4l169.6 195.2c8 9.6 24 11.2 33.6 3.2s11.2-24 3.2-33.6l-171.2-198.4c-9.6-9.6-9.6-25.6 0-35.2 4.8-4.8 11.2-6.4 17.6-6.4s12.8 3.2 16 8l276.8 294.4c8 9.6 22.4 9.6 33.6 1.6 9.6-8 11.2-22.4 3.2-32-22.4-30.4-54.4-89.6-46.4-120 1.6-8 6.4-12.8 16-17.6 4.8-1.6 6.4-1.6 8 0 12.8 4.8 27.2 36.8 33.6 52.8 3.2 6.4 6.4 12.8 8 17.6 17.6 33.6 75.2 150.4 81.6 275.2 0 19.2 14.4 33.6 78.4 89.6l25.6 22.4c9.6 9.6 25.6 8 33.6-1.6 9.6-9.6 8-25.6-1.6-33.6l-25.6-22.4c-32-28.8-56-51.2-62.4-59.2-9.6-134.4-68.8-257.6-88-292.8-1.6-3.2-3.2-8-6.4-14.4-11.2-27.2-28.8-65.6-60.8-78.4-14.4-6.4-30.4-4.8-44.8 1.6-22.4 9.6-36.8 27.2-41.6 49.6-3.2 9.6-3.2 20.8-1.6 30.4l-182.4-195.2c-12.8-14.4-30.4-22.4-49.6-22.4-1.6 0-3.2 0-3.2 0zM273.6 454.4c-3.2 0-6.4 0-9.6 1.6-9.6 3.2-17.6 9.6-24 16-28.8 28.8-28.8 81.6-1.6 108.8l201.6 192c51.2 51.2 128 88 179.2 99.2 6.4 1.6 16 11.2 49.6 41.6 9.6 9.6 22.4 20.8 35.2 33.6 9.6 9.6 25.6 8 33.6-1.6 9.6-9.6 8-25.6-1.6-33.6-14.4-12.8-25.6-24-35.2-33.6-41.6-38.4-52.8-48-70.4-52.8-44.8-11.2-113.6-43.2-156.8-86.4l-201.6-193.6c-8-8-8-30.4 3.2-40 1.6-1.6 4.8-4.8 8-4.8 12.8-4.8 17.6-19.2 12.8-32-3.2-9.6-12.8-14.4-22.4-14.4zM262.4 329.6c-19.2 0-36.8 8-51.2 20.8-14.4 14.4-20.8 32-20.8 51.2s8 36.8 20.8 51.2l188.8 172.8c9.6 9.6 25.6 8 33.6-1.6 9.6-9.6 8-25.6-1.6-33.6l-187.2-172.8c-3.2-3.2-6.4-9.6-6.4-16s3.2-12.8 6.4-17.6c6.4-6.4 14.4-8 20.8-6.4 12.8 3.2 25.6-6.4 28.8-19.2s-6.4-25.6-19.2-28.8c-3.2 0-8 0-12.8 0z" />
<glyph unicode="&#xe61c;" d="M1000 297.6c12.8 4.8 19.2 17.6 14.4 30.4s-17.6 19.2-30.4 14.4l-272-99.2-67.2 148.8h347.2c8 0 14.4 3.2 19.2 9.6s6.4 12.8 4.8 20.8l-128 512c-3.2 9.6-12.8 17.6-24 17.6h-704c-12.8 0-24-11.2-24-24s11.2-24 24-24h684.8l44.8-176h-569.6c-172.8 0-312-139.2-312-312 0-12.8 11.2-24 24-24h347.2l-67.2-148.8-272 99.2c-12.8 4.8-25.6-1.6-30.4-14.4s1.6-25.6 14.4-30.4l417.6-153.6-148.8-54.4 16 35.2c4.8 12.8 0 25.6-11.2 32-12.8 4.8-25.6 0-32-11.2l-35.2-78.4-206.4-76.8c-12.8-4.8-19.2-17.6-14.4-30.4 3.2-9.6 12.8-16 22.4-16 3.2 0 4.8 0 8 1.6l472 172.8 248-91.2c3.2-1.6 6.4-3.2 9.6-3.2l214.4-78.4c3.2-1.6 4.8-1.6 8-1.6 9.6 0 19.2 6.4 22.4 16 4.8 12.8-1.6 25.6-14.4 30.4l-209.6 76.8-32 73.6c-4.8 12.8-19.2 17.6-32 12.8s-17.6-19.2-12.8-32l12.8-30.4-144 52.8 417.6 153.6zM320 680h580.8l60.8-240h-353.6c0 0 0 0 0 0h-550.4c11.2 134.4 124.8 240 262.4 240zM356.8 227.2l75.2 164.8h160l73.6-166.4-153.6-56-155.2 57.6zM560 560c0-26.51-21.49-48-48-48s-48 21.49-48 48c0 26.51 21.49 48 48 48s48-21.49 48-48zM728 560c0-26.51-21.49-48-48-48s-48 21.49-48 48c0 26.51 21.49 48 48 48s48-21.49 48-48zM392 560c0-26.51-21.49-48-48-48s-48 21.49-48 48c0 26.51 21.49 48 48 48s48-21.49 48-48z" />
<glyph unicode="&#xe61d;" d="M32 160c-12.8 0-24 11.2-24 24 0 177.6 142.4 328 312 328h598.4c12.8 0 24-11.2 24-24s-11.2-24-24-24h-598.4c-140.8 0-264-131.2-264-280 0-12.8-11.2-24-24-24zM992 160h-960c-12.8 0-24 11.2-24 24s11.2 24 24 24h929.6l-116.8 480h-684.8c-12.8 0-24 11.2-24 24s11.2 24 24 24h704c11.2 0 20.8-8 24-17.6l128-528c1.6-6.4 0-14.4-4.8-20.8s-11.2-9.6-19.2-9.6zM560 336c0-26.51-21.49-48-48-48s-48 21.49-48 48c0 26.51 21.49 48 48 48s48-21.49 48-48zM712 336c0-26.51-21.49-48-48-48s-48 21.49-48 48c0 26.51 21.49 48 48 48s48-21.49 48-48zM408 336c0-26.51-21.49-48-48-48s-48 21.49-48 48c0 26.51 21.49 48 48 48s48-21.49 48-48z" />
<glyph unicode="&#xe61e;" d="M1000 297.6c12.8 4.8 19.2 17.6 14.4 30.4s-17.6 19.2-30.4 14.4l-272-99.2-67.2 148.8h347.2c8 0 14.4 3.2 19.2 9.6s6.4 12.8 4.8 20.8l-128 512c-3.2 9.6-12.8 17.6-24 17.6h-704c-12.8 0-24-11.2-24-24s11.2-24 24-24h684.8l44.8-176h-569.6c-172.8 0-312-139.2-312-312 0-12.8 11.2-24 24-24h347.2l-67.2-148.8-272 99.2c-12.8 4.8-25.6-1.6-30.4-14.4s1.6-25.6 14.4-30.4l417.6-153.6-148.8-54.4 16 35.2c4.8 12.8 0 25.6-11.2 32-12.8 4.8-25.6 0-32-11.2l-35.2-78.4-206.4-76.8c-12.8-4.8-19.2-17.6-14.4-30.4 3.2-9.6 12.8-16 22.4-16 3.2 0 4.8 0 8 1.6l472 172.8 248-91.2c3.2-1.6 6.4-3.2 9.6-3.2l214.4-78.4c3.2-1.6 4.8-1.6 8-1.6 9.6 0 19.2 6.4 22.4 16 4.8 12.8-1.6 25.6-14.4 30.4l-209.6 76.8-32 73.6c-4.8 12.8-19.2 17.6-32 12.8s-17.6-19.2-12.8-32l12.8-30.4-144 52.8 417.6 153.6zM320 680h580.8l60.8-240h-353.6c0 0 0 0 0 0h-550.4c11.2 134.4 124.8 240 262.4 240zM356.8 227.2l75.2 164.8h160l73.6-166.4-153.6-56-155.2 57.6zM560 560c0-26.51-21.49-48-48-48s-48 21.49-48 48c0 26.51 21.49 48 48 48s48-21.49 48-48z" />
<glyph unicode="&#xe61f;" d="M32 160c-12.8 0-24 11.2-24 24 0 177.6 142.4 328 312 328h598.4c12.8 0 24-11.2 24-24s-11.2-24-24-24h-598.4c-140.8 0-264-131.2-264-280 0-12.8-11.2-24-24-24zM992 160h-960c-12.8 0-24 11.2-24 24s11.2 24 24 24h929.6l-116.8 480h-684.8c-12.8 0-24 11.2-24 24s11.2 24 24 24h704c11.2 0 20.8-8 24-17.6l128-528c1.6-6.4 0-14.4-4.8-20.8s-11.2-9.6-19.2-9.6zM560 336c0-26.51-21.49-48-48-48s-48 21.49-48 48c0 26.51 21.49 48 48 48s48-21.49 48-48z" />
<glyph unicode="&#xe620;" d="M1000 297.6c12.8 4.8 19.2 17.6 14.4 30.4s-17.6 19.2-30.4 14.4l-272-99.2-67.2 148.8h347.2c8 0 14.4 3.2 19.2 9.6s6.4 12.8 4.8 20.8l-128 512c-3.2 9.6-12.8 17.6-24 17.6h-704c-12.8 0-24-11.2-24-24s11.2-24 24-24h684.8l44.8-176h-569.6c-172.8 0-312-139.2-312-312 0-12.8 11.2-24 24-24h347.2l-67.2-148.8-272 99.2c-12.8 4.8-25.6-1.6-30.4-14.4s1.6-25.6 14.4-30.4l417.6-153.6-148.8-54.4 16 35.2c4.8 12.8 0 25.6-11.2 32-12.8 4.8-25.6 0-32-11.2l-35.2-78.4-206.4-76.8c-12.8-4.8-19.2-17.6-14.4-30.4 3.2-9.6 12.8-16 22.4-16 3.2 0 4.8 0 8 1.6l472 172.8 248-91.2c3.2-1.6 6.4-3.2 9.6-3.2l214.4-78.4c3.2-1.6 4.8-1.6 8-1.6 9.6 0 19.2 6.4 22.4 16 4.8 12.8-1.6 25.6-14.4 30.4l-209.6 76.8-32 73.6c-4.8 12.8-19.2 17.6-32 12.8s-17.6-19.2-12.8-32l12.8-30.4-144 52.8 417.6 153.6zM320 680h580.8l60.8-240h-353.6c0 0 0 0 0 0h-550.4c11.2 134.4 124.8 240 262.4 240zM356.8 227.2l75.2 164.8h160l73.6-166.4-153.6-56-155.2 57.6zM472 560c0-26.51-21.49-48-48-48s-48 21.49-48 48c0 26.51 21.49 48 48 48s48-21.49 48-48zM648 560c0-26.51-21.49-48-48-48s-48 21.49-48 48c0 26.51 21.49 48 48 48s48-21.49 48-48z" />
<glyph unicode="&#xe621;" d="M32 160c-12.8 0-24 11.2-24 24 0 177.6 142.4 328 312 328h598.4c12.8 0 24-11.2 24-24s-11.2-24-24-24h-598.4c-140.8 0-264-131.2-264-280 0-12.8-11.2-24-24-24zM992 160h-960c-12.8 0-24 11.2-24 24s11.2 24 24 24h929.6l-116.8 480h-684.8c-12.8 0-24 11.2-24 24s11.2 24 24 24h704c11.2 0 20.8-8 24-17.6l128-528c1.6-6.4 0-14.4-4.8-20.8s-11.2-9.6-19.2-9.6zM472 336c0-26.51-21.49-48-48-48s-48 21.49-48 48c0 26.51 21.49 48 48 48s48-21.49 48-48zM648 336c0-26.51-21.49-48-48-48s-48 21.49-48 48c0 26.51 21.49 48 48 48s48-21.49 48-48z" />
<glyph unicode="&#xe622;" d="M1000 297.6c12.8 4.8 19.2 17.6 14.4 30.4s-17.6 19.2-30.4 14.4l-272-99.2-67.2 148.8h347.2c8 0 14.4 3.2 19.2 9.6s6.4 12.8 4.8 20.8l-128 512c-3.2 9.6-12.8 17.6-24 17.6h-704c-12.8 0-24-11.2-24-24s11.2-24 24-24h684.8l44.8-176h-569.6c-172.8 0-312-139.2-312-312 0-12.8 11.2-24 24-24h347.2l-67.2-148.8-272 99.2c-12.8 4.8-25.6-1.6-30.4-14.4s1.6-25.6 14.4-30.4l417.6-153.6-148.8-54.4 16 35.2c4.8 12.8 0 25.6-11.2 32-12.8 4.8-25.6 0-32-11.2l-35.2-78.4-206.4-76.8c-12.8-4.8-19.2-17.6-14.4-30.4 3.2-9.6 12.8-16 22.4-16 3.2 0 4.8 0 8 1.6l472 172.8 248-91.2c3.2-1.6 6.4-3.2 9.6-3.2l214.4-78.4c3.2-1.6 4.8-1.6 8-1.6 9.6 0 19.2 6.4 22.4 16 4.8 12.8-1.6 25.6-14.4 30.4l-209.6 76.8-32 73.6c-4.8 12.8-19.2 17.6-32 12.8s-17.6-19.2-12.8-32l12.8-30.4-144 52.8 417.6 153.6zM320 680h580.8l60.8-240h-353.6c0 0 0 0 0 0h-550.4c11.2 134.4 124.8 240 262.4 240zM356.8 227.2l75.2 164.8h160l73.6-166.4-153.6-56-155.2 57.6z" />
<glyph unicode="&#xe623;" d="M32 360c-12.8 0-24 11.2-24 24 0 172.8 139.2 312 312 312h600c12.8 0 24-11.2 24-24s-11.2-24-24-24h-600c-145.6 0-264-118.4-264-264 0-12.8-11.2-24-24-24zM992 360h-960c-12.8 0-24 11.2-24 24s11.2 24 24 24h929.6l-115.2 464h-686.4c-12.8 0-24 11.2-24 24s11.2 24 24 24h704c11.2 0 20.8-8 24-17.6l128-512c1.6-6.4 0-14.4-4.8-20.8s-11.2-9.6-19.2-9.6zM256 8c-3.2 0-6.4 0-9.6 1.6-12.8 4.8-17.6 19.2-11.2 32l116.8 256c4.8 12.8 19.2 17.6 32 11.2 12.8-4.8 17.6-19.2 11.2-32l-116.8-256c-4.8-8-12.8-12.8-22.4-12.8zM768 8c-9.6 0-17.6 4.8-22.4 14.4l-116.8 256c-4.8 12.8 0 25.6 11.2 32 12.8 4.8 25.6 0 32-11.2l116.8-256c4.8-12.8 0-25.6-11.2-32-3.2-3.2-6.4-3.2-9.6-3.2zM512-24c-12.8 0-24 11.2-24 24v192c0 12.8 11.2 24 24 24s24-11.2 24-24v-192c0-12.8-11.2-24-24-24z" />
<glyph unicode="&#xe624;" d="M32 168c-12.8 0-24 11.2-24 24 0 172.8 139.2 312 312 312h600c12.8 0 24-11.2 24-24s-11.2-24-24-24h-600c-145.6 0-264-118.4-264-264 0-12.8-11.2-24-24-24zM992 168h-960c-12.8 0-24 11.2-24 24s11.2 24 24 24h929.6l-115.2 464h-686.4c-12.8 0-24 11.2-24 24s11.2 24 24 24h704c11.2 0 20.8-8 24-17.6l128-512c1.6-6.4 0-14.4-4.8-20.8s-11.2-9.6-19.2-9.6z" />
<glyph unicode="&#xe625;" d="M864 120h-704c-11.2 0-20.8 8-24 19.2l-128 608c-3.2 12.8 4.8 25.6 19.2 28.8 12.8 3.2 25.6-4.8 28.8-19.2l123.2-588.8h665.6l123.2 588.8c3.2 12.8 16 20.8 28.8 19.2 12.8-3.2 20.8-16 19.2-28.8l-128-608c-3.2-11.2-12.8-19.2-24-19.2zM720 400c-27.2 0-48 20.8-48 48s20.8 48 48 48 48-20.8 48-48c0-27.2-20.8-48-48-48zM720 464c-9.6 0-16-6.4-16-16s6.4-16 16-16 16 6.4 16 16c0 9.6-6.4 16-16 16zM872 568c-43.2 0-83.2 19.2-110.4 51.2-17.6 19.2-41.6 28.8-68.8 28.8s-51.2-11.2-70.4-30.4c-27.2-32-67.2-51.2-110.4-51.2-41.6 0-81.6 19.2-110.4 51.2-17.6 19.2-43.2 30.4-70.4 30.4s-52.8-11.2-70.4-32c-27.2-32-67.2-49.6-108.8-49.6-44.8 0-89.6 22.4-115.2 59.2-8 11.2-6.4 25.6 4.8 33.6s25.6 6.4 33.6-4.8c17.6-25.6 46.4-38.4 76.8-38.4 28.8 0 54.4 12.8 73.6 33.6 27.2 30.4 67.2 48 107.2 48s78.4-17.6 105.6-46.4c19.2-22.4 44.8-35.2 73.6-35.2s56 12.8 73.6 35.2c28.8 30.4 67.2 46.4 105.6 46.4 40 0 78.4-16 105.6-46.4 19.2-24 44.8-35.2 75.2-35.2s59.2 14.4 76.8 38.4c8 11.2 22.4 12.8 33.6 4.8s12.8-22.4 4.8-33.6c-25.6-35.2-70.4-57.6-115.2-57.6zM552 264c-44.8 0-80 35.2-80 80v64c0 44.8 35.2 80 80 80s80-35.2 80-80v-64c0-44.8-35.2-80-80-80zM552 440c-17.6 0-32-14.4-32-32v-64c0-17.6 14.4-32 32-32s32 14.4 32 32v64c0 17.6-14.4 32-32 32zM360 264c-33.6 0-62.4 20.8-75.2 51.2-4.8 12.8 1.6 25.6 14.4 30.4s25.6-1.6 30.4-14.4c4.8-12.8 16-20.8 30.4-20.8 17.6 0 32 14.4 32 32s-14.4 32-32 32h-8c-9.6 0-19.2 6.4-22.4 14.4-3.2 9.6-1.6 19.2 4.8 25.6l22.4 22.4h-36.8c-12.8 0-24 11.2-24 24s11.2 24 24 24h96c9.6 0 19.2-6.4 22.4-14.4 3.2-9.6 1.6-19.2-4.8-25.6l-33.6-32c24-14.4 40-40 40-68.8 0-44.8-35.2-80-80-80z" />
<glyph unicode="&#xe626;" d="M864 120h-704c-11.2 0-20.8 8-24 19.2l-128 608c-3.2 12.8 4.8 25.6 19.2 28.8 12.8 3.2 25.6-4.8 28.8-19.2l123.2-588.8h665.6l123.2 588.8c3.2 12.8 16 20.8 28.8 19.2 12.8-3.2 20.8-16 19.2-28.8l-128-608c-3.2-11.2-12.8-19.2-24-19.2zM872 568c-43.2 0-83.2 19.2-110.4 51.2-17.6 19.2-41.6 28.8-68.8 28.8s-51.2-11.2-70.4-30.4c-27.2-32-67.2-51.2-110.4-51.2-41.6 0-81.6 19.2-110.4 51.2-17.6 19.2-43.2 30.4-70.4 30.4s-52.8-11.2-70.4-32c-27.2-32-67.2-49.6-108.8-49.6-44.8 0-89.6 22.4-115.2 59.2-8 11.2-6.4 25.6 4.8 33.6s25.6 6.4 33.6-4.8c17.6-25.6 46.4-38.4 76.8-38.4 28.8 0 54.4 12.8 73.6 33.6 27.2 30.4 67.2 48 107.2 48s78.4-17.6 105.6-46.4c19.2-22.4 44.8-35.2 73.6-35.2s56 12.8 73.6 35.2c28.8 30.4 67.2 46.4 105.6 46.4 40 0 78.4-16 105.6-46.4 19.2-24 44.8-35.2 75.2-35.2s59.2 14.4 76.8 38.4c8 11.2 22.4 12.8 33.6 4.8s12.8-22.4 4.8-33.6c-25.6-35.2-70.4-57.6-115.2-57.6zM520 264c-44.8 0-80 35.2-80 80v64c0 44.8 35.2 80 80 80s80-35.2 80-80v-64c0-44.8-35.2-80-80-80zM520 440c-17.6 0-32-14.4-32-32v-64c0-17.6 14.4-32 32-32s32 14.4 32 32v64c0 17.6-14.4 32-32 32zM712 264c-44.8 0-80 35.2-80 80v64c0 44.8 35.2 80 80 80 27.2 0 51.2-12.8 65.6-35.2 8-11.2 4.8-25.6-6.4-33.6s-25.6-4.8-33.6 6.4c-6.4 9.6-16 14.4-27.2 14.4-17.6 0-32-14.4-32-32v-64c0-17.6 14.4-32 32-32 8 0 17.6 3.2 22.4 9.6 9.6 9.6 24 9.6 33.6 0s9.6-24 0-33.6c-12.8-16-32-24-54.4-24zM328 264c-33.6 0-62.4 20.8-75.2 51.2-4.8 12.8 1.6 25.6 14.4 30.4s25.6-1.6 30.4-14.4c4.8-12.8 16-20.8 30.4-20.8 17.6 0 32 14.4 32 32s-14.4 32-32 32h-8c-9.6 0-19.2 6.4-22.4 14.4-3.2 9.6-1.6 19.2 4.8 25.6l22.4 22.4h-36.8c-12.8 0-24 11.2-24 24s11.2 24 24 24h96c9.6 0 19.2-6.4 22.4-14.4 3.2-9.6 1.6-19.2-4.8-25.6l-33.6-32c24-14.4 40-40 40-68.8 0-44.8-35.2-80-80-80z" />
<glyph unicode="&#xe627;" d="M864 120h-704c-11.2 0-20.8 8-24 19.2l-128 608c-3.2 12.8 4.8 25.6 19.2 28.8 12.8 3.2 25.6-4.8 28.8-19.2l123.2-588.8h665.6l123.2 588.8c3.2 12.8 16 20.8 28.8 19.2 12.8-3.2 20.8-16 19.2-28.8l-128-608c-3.2-11.2-12.8-19.2-24-19.2zM720 400c-27.2 0-48 20.8-48 48s20.8 48 48 48 48-20.8 48-48c0-27.2-20.8-48-48-48zM720 464c-9.6 0-16-6.4-16-16s6.4-16 16-16 16 6.4 16 16c0 9.6-6.4 16-16 16zM872 568c-43.2 0-83.2 19.2-110.4 51.2-17.6 19.2-41.6 28.8-68.8 28.8s-51.2-11.2-70.4-30.4c-27.2-32-67.2-51.2-110.4-51.2-41.6 0-81.6 19.2-110.4 51.2-17.6 19.2-43.2 30.4-70.4 30.4s-52.8-11.2-70.4-32c-27.2-32-67.2-49.6-108.8-49.6-44.8 0-89.6 22.4-115.2 59.2-8 11.2-6.4 25.6 4.8 33.6s25.6 6.4 33.6-4.8c17.6-25.6 46.4-38.4 76.8-38.4 28.8 0 54.4 12.8 73.6 33.6 27.2 30.4 67.2 48 107.2 48s78.4-17.6 105.6-46.4c19.2-22.4 44.8-35.2 73.6-35.2s56 12.8 73.6 35.2c28.8 30.4 67.2 46.4 105.6 46.4 40 0 78.4-16 105.6-46.4 19.2-24 44.8-35.2 75.2-35.2s59.2 14.4 76.8 38.4c8 11.2 22.4 12.8 33.6 4.8s12.8-22.4 4.8-33.6c-25.6-35.2-70.4-57.6-115.2-57.6zM552 264c-44.8 0-80 35.2-80 80v64c0 44.8 35.2 80 80 80s80-35.2 80-80v-64c0-44.8-35.2-80-80-80zM552 440c-17.6 0-32-14.4-32-32v-64c0-17.6 14.4-32 32-32s32 14.4 32 32v64c0 17.6-14.4 32-32 32zM416 264c-12.8 0-24 11.2-24 24v176c0 12.8 11.2 24 24 24s24-11.2 24-24v-176c0-12.8-11.2-24-24-24zM416 312h-116.8c-8 0-16 4.8-20.8 11.2s-4.8 16-1.6 24l64 128c6.4 11.2 20.8 16 32 11.2 11.2-6.4 16-20.8 11.2-32l-46.4-92.8h78.4c12.8 0 24-11.2 24-24s-11.2-25.6-24-25.6z" />
<glyph unicode="&#xe628;" d="M864 120h-704c-11.2 0-20.8 8-24 19.2l-128 608c-3.2 12.8 4.8 25.6 19.2 28.8 12.8 3.2 25.6-4.8 28.8-19.2l123.2-588.8h665.6l123.2 588.8c3.2 12.8 16 20.8 28.8 19.2 12.8-3.2 20.8-16 19.2-28.8l-128-608c-3.2-11.2-12.8-19.2-24-19.2zM872 568c-43.2 0-83.2 19.2-110.4 51.2-17.6 19.2-41.6 28.8-68.8 28.8s-51.2-11.2-70.4-30.4c-27.2-32-67.2-51.2-110.4-51.2-41.6 0-81.6 19.2-110.4 51.2-17.6 19.2-43.2 30.4-70.4 30.4s-52.8-11.2-70.4-32c-27.2-32-67.2-49.6-108.8-49.6-44.8 0-89.6 22.4-115.2 59.2-8 11.2-6.4 25.6 4.8 33.6s25.6 6.4 33.6-4.8c17.6-25.6 46.4-38.4 76.8-38.4 28.8 0 54.4 12.8 73.6 33.6 27.2 30.4 67.2 48 107.2 48s78.4-17.6 105.6-46.4c19.2-22.4 44.8-35.2 73.6-35.2s56 12.8 73.6 35.2c28.8 30.4 67.2 46.4 105.6 46.4 40 0 78.4-16 105.6-46.4 19.2-24 44.8-35.2 75.2-35.2s59.2 14.4 76.8 38.4c8 11.2 22.4 12.8 33.6 4.8s12.8-22.4 4.8-33.6c-25.6-35.2-70.4-57.6-115.2-57.6zM520 264c-44.8 0-80 35.2-80 80v64c0 44.8 35.2 80 80 80s80-35.2 80-80v-64c0-44.8-35.2-80-80-80zM520 440c-17.6 0-32-14.4-32-32v-64c0-17.6 14.4-32 32-32s32 14.4 32 32v64c0 17.6-14.4 32-32 32zM712 264c-44.8 0-80 35.2-80 80v64c0 44.8 35.2 80 80 80 27.2 0 51.2-12.8 65.6-35.2 8-11.2 4.8-25.6-6.4-33.6s-25.6-4.8-33.6 6.4c-6.4 9.6-16 14.4-27.2 14.4-17.6 0-32-14.4-32-32v-64c0-17.6 14.4-32 32-32 8 0 17.6 3.2 22.4 9.6 9.6 9.6 24 9.6 33.6 0s9.6-24 0-33.6c-12.8-16-32-24-54.4-24zM384 264c-12.8 0-24 11.2-24 24v176c0 12.8 11.2 24 24 24s24-11.2 24-24v-176c0-12.8-11.2-24-24-24zM384 312h-116.8c-8 0-16 4.8-20.8 11.2s-4.8 16-1.6 24l64 128c6.4 11.2 20.8 16 32 11.2 11.2-6.4 16-20.8 11.2-32l-46.4-92.8h78.4c12.8 0 24-11.2 24-24s-11.2-25.6-24-25.6z" />
<glyph unicode="&#xe629;" d="M864 120h-704c-11.2 0-20.8 8-24 19.2l-128 608c-3.2 12.8 4.8 25.6 19.2 28.8 12.8 3.2 25.6-4.8 28.8-19.2l123.2-588.8h665.6l123.2 588.8c3.2 12.8 16 20.8 28.8 19.2 12.8-3.2 20.8-16 19.2-28.8l-128-608c-3.2-11.2-12.8-19.2-24-19.2zM720 400c-27.2 0-48 20.8-48 48s20.8 48 48 48 48-20.8 48-48c0-27.2-20.8-48-48-48zM720 464c-9.6 0-16-6.4-16-16s6.4-16 16-16 16 6.4 16 16c0 9.6-6.4 16-16 16zM872 568c-43.2 0-83.2 19.2-110.4 51.2-17.6 19.2-41.6 28.8-68.8 28.8s-51.2-11.2-70.4-30.4c-27.2-32-67.2-51.2-110.4-51.2-41.6 0-81.6 19.2-110.4 51.2-17.6 19.2-43.2 30.4-70.4 30.4s-52.8-11.2-70.4-32c-27.2-32-67.2-49.6-108.8-49.6-44.8 0-89.6 22.4-115.2 59.2-8 11.2-6.4 25.6 4.8 33.6s25.6 6.4 33.6-4.8c17.6-25.6 46.4-38.4 76.8-38.4 28.8 0 54.4 12.8 73.6 33.6 27.2 30.4 67.2 48 107.2 48s78.4-17.6 105.6-46.4c19.2-22.4 44.8-35.2 73.6-35.2s56 12.8 73.6 35.2c28.8 30.4 67.2 46.4 105.6 46.4 40 0 78.4-16 105.6-46.4 19.2-24 44.8-35.2 75.2-35.2s59.2 14.4 76.8 38.4c8 11.2 22.4 12.8 33.6 4.8s12.8-22.4 4.8-33.6c-25.6-35.2-70.4-57.6-115.2-57.6zM552 264c-44.8 0-80 35.2-80 80v64c0 44.8 35.2 80 80 80s80-35.2 80-80v-64c0-44.8-35.2-80-80-80zM552 440c-17.6 0-32-14.4-32-32v-64c0-17.6 14.4-32 32-32s32 14.4 32 32v64c0 17.6-14.4 32-32 32zM360 264c-28.8 0-54.4 14.4-68.8 38.4-6.4 11.2-3.2 25.6 8 33.6 11.2 6.4 25.6 3.2 33.6-8 6.4-9.6 16-16 27.2-16 17.6 0 32 14.4 32 32s-14.4 32-32 32h-48c-12.8 0-24 11.2-24 24v64c0 12.8 11.2 24 24 24h96c12.8 0 24-11.2 24-24s-11.2-24-24-24h-72v-16h24c44.8 0 80-35.2 80-80s-36.8-80-80-80z" />
<glyph unicode="&#xe62a;" d="M864 120h-704c-11.2 0-20.8 8-24 19.2l-128 608c-3.2 12.8 4.8 25.6 19.2 28.8 12.8 3.2 25.6-4.8 28.8-19.2l123.2-588.8h665.6l123.2 588.8c3.2 12.8 16 20.8 28.8 19.2 12.8-3.2 20.8-16 19.2-28.8l-128-608c-3.2-11.2-12.8-19.2-24-19.2zM872 568c-43.2 0-83.2 19.2-110.4 51.2-17.6 19.2-41.6 28.8-68.8 28.8s-51.2-11.2-70.4-30.4c-27.2-32-67.2-51.2-110.4-51.2-41.6 0-81.6 19.2-110.4 51.2-17.6 19.2-43.2 30.4-70.4 30.4s-52.8-11.2-70.4-32c-27.2-32-67.2-49.6-108.8-49.6-44.8 0-89.6 22.4-115.2 59.2-8 11.2-6.4 25.6 4.8 33.6s25.6 6.4 33.6-4.8c17.6-24 46.4-38.4 76.8-38.4 28.8 0 54.4 12.8 73.6 33.6 27.2 30.4 67.2 48 107.2 48s78.4-17.6 105.6-46.4c19.2-22.4 44.8-35.2 73.6-35.2s56 12.8 73.6 35.2c28.8 30.4 67.2 46.4 105.6 46.4 40 0 78.4-16 105.6-46.4 19.2-24 44.8-35.2 75.2-35.2s59.2 14.4 76.8 38.4c8 11.2 22.4 12.8 33.6 4.8s12.8-22.4 4.8-33.6c-25.6-35.2-70.4-57.6-115.2-57.6zM520 264c-44.8 0-80 35.2-80 80v64c0 44.8 35.2 80 80 80s80-35.2 80-80v-64c0-44.8-35.2-80-80-80zM520 440c-17.6 0-32-14.4-32-32v-64c0-17.6 14.4-32 32-32s32 14.4 32 32v64c0 17.6-14.4 32-32 32zM712 264c-44.8 0-80 35.2-80 80v64c0 44.8 35.2 80 80 80 27.2 0 51.2-12.8 65.6-35.2 8-11.2 4.8-25.6-6.4-33.6s-25.6-4.8-33.6 6.4c-6.4 9.6-16 14.4-27.2 14.4-17.6 0-32-14.4-32-32v-64c0-17.6 14.4-32 32-32 8 0 17.6 3.2 22.4 9.6 9.6 9.6 24 9.6 33.6 0s9.6-24 0-33.6c-12.8-16-32-24-54.4-24zM328 264c-27.2 0-54.4 14.4-68.8 38.4-6.4 11.2-3.2 25.6 8 33.6 11.2 6.4 25.6 3.2 33.6-8 6.4-9.6 16-16 27.2-16 17.6 0 32 14.4 32 32s-14.4 32-32 32h-48c-12.8 0-24 11.2-24 24v64c0 12.8 11.2 24 24 24h96c12.8 0 24-11.2 24-24s-11.2-24-24-24h-72v-16h24c44.8 0 80-35.2 80-80s-35.2-80-80-80z" />
<glyph unicode="&#xe62b;" d="M864 120h-704c-11.2 0-20.8 8-24 19.2l-128 608c-3.2 12.8 4.8 25.6 19.2 28.8 12.8 3.2 25.6-4.8 28.8-19.2l123.2-588.8h665.6l123.2 588.8c3.2 12.8 16 20.8 28.8 19.2 12.8-3.2 20.8-16 19.2-28.8l-128-608c-3.2-11.2-12.8-19.2-24-19.2zM720 400c-27.2 0-48 20.8-48 48s20.8 48 48 48 48-20.8 48-48c0-27.2-20.8-48-48-48zM720 464c-9.6 0-16-6.4-16-16s6.4-16 16-16 16 6.4 16 16c0 9.6-6.4 16-16 16zM872 568c-43.2 0-83.2 19.2-110.4 51.2-17.6 19.2-41.6 28.8-68.8 28.8s-51.2-11.2-70.4-30.4c-27.2-32-67.2-51.2-110.4-51.2-41.6 0-81.6 19.2-110.4 51.2-17.6 19.2-43.2 30.4-70.4 30.4s-52.8-11.2-70.4-32c-27.2-32-67.2-49.6-108.8-49.6-44.8 0-89.6 22.4-115.2 59.2-8 11.2-6.4 25.6 4.8 33.6s25.6 6.4 33.6-4.8c17.6-25.6 46.4-38.4 76.8-38.4 28.8 0 54.4 12.8 73.6 33.6 27.2 30.4 67.2 48 107.2 48s78.4-17.6 105.6-46.4c19.2-22.4 44.8-35.2 73.6-35.2s56 12.8 73.6 35.2c28.8 30.4 67.2 46.4 105.6 46.4 40 0 78.4-16 105.6-46.4 19.2-24 44.8-35.2 75.2-35.2s59.2 14.4 76.8 38.4c8 11.2 22.4 12.8 33.6 4.8s12.8-22.4 4.8-33.6c-25.6-35.2-70.4-57.6-115.2-57.6zM552 264c-44.8 0-80 35.2-80 80v64c0 44.8 35.2 80 80 80s80-35.2 80-80v-64c0-44.8-35.2-80-80-80zM552 440c-17.6 0-32-14.4-32-32v-64c0-17.6 14.4-32 32-32s32 14.4 32 32v64c0 17.6-14.4 32-32 32zM304 320c-12.8 0-24 11.2-24 24v64c0 44.8 35.2 80 80 80 20.8 0 41.6-8 56-24 9.6-9.6 9.6-24 0-33.6s-24-9.6-33.6 0c-6.4 6.4-14.4 9.6-22.4 9.6-17.6 0-32-14.4-32-32v-64c0-12.8-11.2-24-24-24zM360 264c-44.8 0-80 35.2-80 80s35.2 80 80 80 80-35.2 80-80-35.2-80-80-80zM360 376c-17.6 0-32-14.4-32-32s14.4-32 32-32 32 14.4 32 32-14.4 32-32 32z" />
<glyph unicode="&#xe62c;" d="M864 120h-704c-11.2 0-20.8 8-24 19.2l-128 608c-3.2 12.8 4.8 25.6 19.2 28.8 12.8 3.2 25.6-4.8 28.8-19.2l123.2-588.8h665.6l123.2 588.8c3.2 12.8 16 20.8 28.8 19.2 12.8-3.2 20.8-16 19.2-28.8l-128-608c-3.2-11.2-12.8-19.2-24-19.2zM872 568c-43.2 0-83.2 19.2-110.4 51.2-17.6 19.2-41.6 28.8-68.8 28.8s-51.2-11.2-70.4-30.4c-27.2-32-67.2-51.2-110.4-51.2-41.6 0-81.6 19.2-110.4 51.2-17.6 19.2-43.2 30.4-70.4 30.4s-52.8-11.2-70.4-32c-27.2-32-67.2-49.6-108.8-49.6-44.8 0-89.6 22.4-115.2 59.2-8 11.2-6.4 25.6 4.8 33.6s25.6 6.4 33.6-4.8c17.6-25.6 46.4-38.4 76.8-38.4 28.8 0 54.4 12.8 73.6 33.6 27.2 30.4 67.2 48 107.2 48s78.4-17.6 105.6-46.4c19.2-22.4 44.8-35.2 73.6-35.2s56 12.8 73.6 35.2c28.8 30.4 67.2 46.4 105.6 46.4 40 0 78.4-16 105.6-46.4 19.2-24 44.8-35.2 75.2-35.2s59.2 14.4 76.8 38.4c8 11.2 22.4 12.8 33.6 4.8s12.8-22.4 4.8-33.6c-25.6-35.2-70.4-57.6-115.2-57.6zM520 264c-44.8 0-80 35.2-80 80v64c0 44.8 35.2 80 80 80s80-35.2 80-80v-64c0-44.8-35.2-80-80-80zM520 440c-17.6 0-32-14.4-32-32v-64c0-17.6 14.4-32 32-32s32 14.4 32 32v64c0 17.6-14.4 32-32 32zM712 264c-44.8 0-80 35.2-80 80v64c0 44.8 35.2 80 80 80 27.2 0 51.2-12.8 65.6-35.2 8-11.2 4.8-25.6-6.4-33.6s-25.6-4.8-33.6 6.4c-6.4 9.6-16 14.4-27.2 14.4-17.6 0-32-14.4-32-32v-64c0-17.6 14.4-32 32-32 8 0 17.6 3.2 22.4 9.6 9.6 9.6 24 9.6 33.6 0s9.6-24 0-33.6c-12.8-16-32-24-54.4-24zM272 320c-12.8 0-24 11.2-24 24v64c0 44.8 35.2 80 80 80 20.8 0 41.6-8 56-24 9.6-9.6 9.6-24 0-33.6s-24-9.6-33.6 0c-6.4 6.4-14.4 9.6-22.4 9.6-17.6 0-32-14.4-32-32v-64c0-12.8-11.2-24-24-24zM328 264c-44.8 0-80 35.2-80 80s35.2 80 80 80 80-35.2 80-80-35.2-80-80-80zM328 376c-17.6 0-32-14.4-32-32s14.4-32 32-32 32 14.4 32 32-14.4 32-32 32z" />
<glyph unicode="&#xe62d;" d="M864 120h-704c-11.2 0-20.8 8-24 19.2l-128 608c-3.2 12.8 4.8 25.6 19.2 28.8 12.8 3.2 25.6-4.8 28.8-19.2l123.2-588.8h665.6l123.2 588.8c3.2 12.8 16 20.8 28.8 19.2 12.8-3.2 20.8-16 19.2-28.8l-128-608c-3.2-11.2-12.8-19.2-24-19.2zM720 400c-27.2 0-48 20.8-48 48s20.8 48 48 48 48-20.8 48-48c0-27.2-20.8-48-48-48zM720 464c-9.6 0-16-6.4-16-16s6.4-16 16-16 16 6.4 16 16c0 9.6-6.4 16-16 16zM872 568c-43.2 0-83.2 19.2-110.4 51.2-17.6 19.2-41.6 28.8-68.8 28.8s-51.2-11.2-70.4-30.4c-27.2-32-67.2-51.2-110.4-51.2-41.6 0-81.6 19.2-110.4 51.2-17.6 19.2-43.2 30.4-70.4 30.4s-52.8-11.2-70.4-32c-27.2-32-67.2-49.6-108.8-49.6-44.8 0-89.6 22.4-115.2 59.2-8 11.2-6.4 25.6 4.8 33.6s25.6 6.4 33.6-4.8c17.6-25.6 46.4-38.4 76.8-38.4 28.8 0 54.4 12.8 73.6 33.6 27.2 30.4 67.2 48 107.2 48s78.4-17.6 105.6-46.4c19.2-22.4 44.8-35.2 73.6-35.2s56 12.8 73.6 35.2c28.8 30.4 67.2 46.4 105.6 46.4 40 0 78.4-16 105.6-46.4 19.2-24 44.8-35.2 75.2-35.2s59.2 14.4 76.8 38.4c8 11.2 22.4 12.8 33.6 4.8s12.8-22.4 4.8-33.6c-25.6-35.2-70.4-57.6-115.2-57.6zM552 264c-44.8 0-80 35.2-80 80v64c0 44.8 35.2 80 80 80s80-35.2 80-80v-64c0-44.8-35.2-80-80-80zM552 440c-17.6 0-32-14.4-32-32v-64c0-17.6 14.4-32 32-32s32 14.4 32 32v64c0 17.6-14.4 32-32 32zM352 264c-3.2 0-4.8 0-8 1.6-12.8 4.8-19.2 17.6-14.4 30.4l52.8 144h-62.4c-12.8 0-24 11.2-24 24s11.2 24 24 24h96c8 0 14.4-3.2 19.2-9.6s4.8-14.4 3.2-22.4l-64-176c-3.2-9.6-12.8-16-22.4-16z" />
<glyph unicode="&#xe62e;" d="M865.6 120h-704c-11.2 0-20.8 8-24 19.2l-128 608c-3.2 12.8 4.8 25.6 19.2 28.8 12.8 3.2 25.6-4.8 28.8-19.2l123.2-588.8h665.6l123.2 588.8c3.2 12.8 16 20.8 28.8 19.2 12.8-3.2 20.8-16 19.2-28.8l-128-608c-3.2-11.2-12.8-19.2-24-19.2zM873.6 568c-43.2 0-83.2 19.2-110.4 51.2-17.6 19.2-41.6 28.8-68.8 28.8s-51.2-11.2-70.4-30.4c-27.2-32-67.2-51.2-110.4-51.2-41.6 0-81.6 19.2-110.4 51.2-17.6 19.2-43.2 30.4-70.4 30.4s-52.8-11.2-70.4-32c-27.2-32-67.2-49.6-108.8-49.6-44.8 0-89.6 22.4-115.2 59.2-8 11.2-6.4 25.6 4.8 33.6s25.6 6.4 33.6-4.8c17.6-25.6 46.4-38.4 76.8-38.4 28.8 0 54.4 12.8 73.6 33.6 27.2 30.4 67.2 48 107.2 48s78.4-17.6 105.6-46.4c19.2-22.4 44.8-35.2 73.6-35.2s56 12.8 73.6 35.2c28.8 30.4 67.2 46.4 105.6 46.4 40 0 78.4-16 105.6-46.4 19.2-24 44.8-35.2 75.2-35.2s59.2 14.4 76.8 38.4c8 11.2 22.4 12.8 33.6 4.8s12.8-22.4 4.8-33.6c-27.2-35.2-70.4-57.6-115.2-57.6zM521.6 264c-44.8 0-80 35.2-80 80v64c0 44.8 35.2 80 80 80s80-35.2 80-80v-64c0-44.8-36.8-80-80-80zM521.6 440c-17.6 0-32-14.4-32-32v-64c0-17.6 14.4-32 32-32s32 14.4 32 32v64c0 17.6-14.4 32-32 32zM713.6 264c-44.8 0-80 35.2-80 80v64c0 44.8 35.2 80 80 80 27.2 0 51.2-12.8 65.6-35.2 8-11.2 4.8-25.6-6.4-33.6s-25.6-4.8-33.6 6.4c-6.4 9.6-16 14.4-27.2 14.4-17.6 0-32-14.4-32-32v-64c0-17.6 14.4-32 32-32 8 0 17.6 3.2 22.4 9.6 9.6 9.6 24 9.6 33.6 0s9.6-24 0-33.6c-12.8-16-33.6-24-54.4-24zM321.6 264c-3.2 0-4.8 0-8 1.6-12.8 4.8-19.2 17.6-14.4 30.4l52.8 144h-62.4c-12.8 0-24 11.2-24 24s11.2 24 24 24h96c8 0 14.4-3.2 19.2-9.6s4.8-14.4 3.2-22.4l-64-176c-4.8-9.6-12.8-16-22.4-16z" />
<glyph unicode="&#xe62f;" d="M864 120h-704c-11.2 0-20.8 8-24 19.2l-128 608c-3.2 12.8 4.8 25.6 19.2 28.8 12.8 3.2 25.6-4.8 28.8-19.2l123.2-588.8h665.6l123.2 588.8c3.2 12.8 16 20.8 28.8 19.2 12.8-3.2 20.8-16 19.2-28.8l-128-608c-3.2-11.2-12.8-19.2-24-19.2zM720 400c-27.2 0-48 20.8-48 48s20.8 48 48 48 48-20.8 48-48c0-27.2-20.8-48-48-48zM720 464c-9.6 0-16-6.4-16-16s6.4-16 16-16 16 6.4 16 16c0 9.6-6.4 16-16 16zM872 568c-43.2 0-83.2 19.2-110.4 51.2-17.6 19.2-41.6 28.8-68.8 28.8s-51.2-11.2-70.4-30.4c-27.2-32-67.2-51.2-110.4-51.2-41.6 0-81.6 19.2-110.4 51.2-17.6 19.2-43.2 30.4-70.4 30.4s-52.8-11.2-70.4-32c-27.2-32-67.2-49.6-108.8-49.6-44.8 0-89.6 22.4-115.2 59.2-8 11.2-6.4 25.6 4.8 33.6s25.6 6.4 33.6-4.8c17.6-25.6 46.4-38.4 76.8-38.4 28.8 0 54.4 12.8 73.6 33.6 27.2 30.4 67.2 48 107.2 48s78.4-17.6 105.6-46.4c19.2-22.4 44.8-35.2 73.6-35.2s56 12.8 73.6 35.2c28.8 30.4 67.2 46.4 105.6 46.4 40 0 78.4-16 105.6-46.4 19.2-24 44.8-35.2 75.2-35.2s59.2 14.4 76.8 38.4c8 11.2 22.4 12.8 33.6 4.8s12.8-22.4 4.8-33.6c-25.6-35.2-70.4-57.6-115.2-57.6zM360 264c-20.8 0-41.6 8-56 24-9.6 9.6-9.6 24 0 33.6s24 9.6 33.6 0c6.4-6.4 14.4-9.6 22.4-9.6 17.6 0 32 14.4 32 32v64c0 12.8 11.2 24 24 24s24-11.2 24-24v-64c0-44.8-35.2-80-80-80zM360 328c-44.8 0-80 35.2-80 80s35.2 80 80 80 80-35.2 80-80-35.2-80-80-80zM360 440c-17.6 0-32-14.4-32-32s14.4-32 32-32 32 14.4 32 32-14.4 32-32 32zM544 264c-27.2 0-54.4 14.4-68.8 38.4-6.4 11.2-3.2 25.6 8 33.6 11.2 6.4 25.6 3.2 33.6-8 6.4-9.6 16-16 27.2-16 17.6 0 32 14.4 32 32s-14.4 32-32 32h-48c-12.8 0-24 11.2-24 24v64c0 12.8 11.2 24 24 24h96c12.8 0 24-11.2 24-24s-11.2-24-24-24h-72v-16h24c44.8 0 80-35.2 80-80s-35.2-80-80-80z" />
<glyph unicode="&#xe630;" d="M864 120h-704c-11.2 0-20.8 8-24 19.2l-128 608c-3.2 12.8 4.8 25.6 19.2 28.8 12.8 3.2 25.6-4.8 28.8-19.2l123.2-588.8h665.6l123.2 588.8c3.2 12.8 16 20.8 28.8 19.2 12.8-3.2 20.8-16 19.2-28.8l-128-608c-3.2-11.2-12.8-19.2-24-19.2zM872 568c-43.2 0-83.2 19.2-110.4 51.2-17.6 19.2-41.6 28.8-68.8 28.8s-51.2-11.2-70.4-30.4c-27.2-32-67.2-51.2-110.4-51.2-41.6 0-81.6 19.2-110.4 51.2-17.6 19.2-43.2 30.4-70.4 30.4s-52.8-11.2-70.4-32c-27.2-32-67.2-49.6-108.8-49.6-44.8 0-89.6 22.4-115.2 59.2-8 11.2-6.4 25.6 4.8 33.6s25.6 6.4 33.6-4.8c17.6-25.6 46.4-38.4 76.8-38.4 28.8 0 54.4 12.8 73.6 33.6 27.2 30.4 67.2 48 107.2 48s78.4-17.6 105.6-46.4c19.2-22.4 44.8-35.2 73.6-35.2s56 12.8 73.6 35.2c28.8 30.4 67.2 46.4 105.6 46.4 40 0 78.4-16 105.6-46.4 19.2-24 44.8-35.2 75.2-35.2s59.2 14.4 76.8 38.4c8 11.2 22.4 12.8 33.6 4.8s12.8-22.4 4.8-33.6c-25.6-35.2-70.4-57.6-115.2-57.6zM712 264c-44.8 0-80 35.2-80 80v64c0 44.8 35.2 80 80 80 27.2 0 51.2-12.8 65.6-35.2 8-11.2 4.8-25.6-6.4-33.6s-25.6-4.8-33.6 6.4c-6.4 9.6-16 14.4-27.2 14.4-17.6 0-32-14.4-32-32v-64c0-17.6 14.4-32 32-32 8 0 17.6 3.2 22.4 9.6 9.6 9.6 24 9.6 33.6 0s9.6-24 0-33.6c-12.8-16-32-24-54.4-24zM336 264c-20.8 0-41.6 8-56 24-9.6 9.6-9.6 24 0 33.6s24 9.6 33.6 0c6.4-6.4 14.4-9.6 22.4-9.6 17.6 0 32 14.4 32 32v64c0 12.8 11.2 24 24 24s24-11.2 24-24v-64c0-44.8-35.2-80-80-80zM336 328c-44.8 0-80 35.2-80 80s35.2 80 80 80 80-35.2 80-80-35.2-80-80-80zM336 440c-17.6 0-32-14.4-32-32s14.4-32 32-32 32 14.4 32 32-14.4 32-32 32zM520 264c-28.8 0-54.4 14.4-68.8 38.4-6.4 11.2-3.2 25.6 8 33.6 11.2 6.4 25.6 3.2 33.6-8 6.4-9.6 16-16 27.2-16 17.6 0 32 14.4 32 32s-14.4 32-32 32h-48c-12.8 0-24 11.2-24 24v64c0 12.8 11.2 24 24 24h96c12.8 0 24-11.2 24-24s-11.2-24-24-24h-72v-16h24c44.8 0 80-35.2 80-80s-35.2-80-80-80z" />
<glyph unicode="&#xe631;" d="M864 120h-704c-11.2 0-20.8 8-24 19.2l-128 608c-3.2 12.8 4.8 25.6 19.2 28.8 12.8 3.2 25.6-4.8 28.8-19.2l123.2-588.8h665.6l123.2 588.8c3.2 12.8 16 20.8 28.8 19.2 12.8-3.2 20.8-16 19.2-28.8l-128-608c-3.2-11.2-12.8-19.2-24-19.2zM872 568c-43.2 0-83.2 19.2-110.4 51.2-17.6 19.2-41.6 28.8-68.8 28.8s-51.2-11.2-70.4-30.4c-27.2-32-67.2-51.2-110.4-51.2-41.6 0-81.6 19.2-110.4 51.2-17.6 19.2-43.2 30.4-70.4 30.4s-52.8-11.2-70.4-32c-27.2-32-67.2-49.6-108.8-49.6-44.8 0-89.6 22.4-115.2 59.2-8 11.2-6.4 25.6 4.8 33.6s25.6 6.4 33.6-4.8c17.6-25.6 46.4-38.4 76.8-38.4 28.8 0 54.4 12.8 73.6 33.6 27.2 30.4 67.2 48 107.2 48s78.4-17.6 105.6-46.4c19.2-22.4 44.8-35.2 73.6-35.2s56 12.8 73.6 35.2c28.8 30.4 67.2 46.4 105.6 46.4 40 0 78.4-16 105.6-46.4 19.2-24 44.8-35.2 75.2-35.2s59.2 14.4 76.8 38.4c8 11.2 22.4 12.8 33.6 4.8s12.8-22.4 4.8-33.6c-25.6-35.2-70.4-57.6-115.2-57.6zM560 384c0-26.51-21.49-48-48-48s-48 21.49-48 48c0 26.51 21.49 48 48 48s48-21.49 48-48z" />
<glyph unicode="&#xe632;" d="M864 248h-704c-11.2 0-20.8 8-24 19.2l-128 608c-1.6 12.8 6.4 25.6 19.2 28.8s25.6-4.8 28.8-19.2l123.2-588.8h665.6l123.2 588.8c3.2 12.8 16 20.8 28.8 19.2 12.8-3.2 20.8-16 19.2-28.8l-128-608c-3.2-11.2-12.8-19.2-24-19.2zM720 528c-27.2 0-48 20.8-48 48s20.8 48 48 48 48-20.8 48-48-20.8-48-48-48zM720 592c-9.6 0-16-6.4-16-16s6.4-16 16-16 16 6.4 16 16-6.4 16-16 16zM872 696c-43.2 0-83.2 19.2-110.4 51.2-17.6 19.2-41.6 28.8-68.8 28.8s-51.2-11.2-70.4-30.4c-27.2-32-67.2-51.2-110.4-51.2-41.6 0-81.6 19.2-110.4 51.2-17.6 19.2-43.2 30.4-70.4 30.4s-52.8-11.2-70.4-32c-27.2-32-67.2-49.6-108.8-49.6-44.8 0-89.6 22.4-115.2 59.2-8 11.2-6.4 25.6 4.8 33.6s25.6 6.4 33.6-4.8c17.6-24 46.4-38.4 76.8-38.4 28.8 0 54.4 12.8 73.6 33.6 27.2 30.4 67.2 48 107.2 48s78.4-17.6 105.6-46.4c19.2-22.4 44.8-35.2 73.6-35.2s56 12.8 73.6 35.2c28.8 30.4 67.2 46.4 105.6 46.4 40 0 78.4-16 105.6-46.4 19.2-24 44.8-35.2 75.2-35.2s59.2 14.4 76.8 38.4c8 11.2 22.4 12.8 33.6 4.8s12.8-22.4 4.8-33.6c-25.6-35.2-70.4-57.6-115.2-57.6zM552 392c-44.8 0-80 35.2-80 80v64c0 44.8 35.2 80 80 80s80-35.2 80-80v-64c0-44.8-35.2-80-80-80zM552 568c-17.6 0-32-14.4-32-32v-64c0-17.6 14.4-32 32-32s32 14.4 32 32v64c0 17.6-14.4 32-32 32zM360 392c-33.6 0-62.4 20.8-75.2 51.2-4.8 12.8 1.6 25.6 14.4 30.4s25.6-1.6 30.4-14.4c4.8-12.8 16-20.8 30.4-20.8 17.6 0 32 14.4 32 32s-14.4 32-32 32h-8c-9.6 0-19.2 6.4-22.4 14.4s-1.6 19.2 4.8 25.6l22.4 22.4h-36.8c-12.8 0-24 11.2-24 24s11.2 24 24 24h96c9.6 0 19.2-6.4 22.4-14.4s1.6-19.2-4.8-25.6l-33.6-32c24-14.4 40-40 40-68.8 0-44.8-35.2-80-80-80zM896 120h-768c-12.8 0-24 11.2-24 24s11.2 24 24 24h768c12.8 0 24-11.2 24-24s-11.2-24-24-24zM896-8h-768c-12.8 0-24 11.2-24 24s11.2 24 24 24h768c12.8 0 24-11.2 24-24s-11.2-24-24-24z" />
<glyph unicode="&#xe633;" d="M864 248h-704c-11.2 0-20.8 8-24 19.2l-128 608c-1.6 12.8 6.4 25.6 19.2 28.8s25.6-4.8 28.8-19.2l123.2-588.8h665.6l123.2 588.8c3.2 12.8 16 20.8 28.8 19.2 12.8-3.2 20.8-16 19.2-28.8l-128-608c-3.2-11.2-12.8-19.2-24-19.2zM872 696c-43.2 0-83.2 19.2-110.4 51.2-17.6 19.2-41.6 28.8-68.8 28.8s-51.2-11.2-70.4-30.4c-27.2-32-67.2-51.2-110.4-51.2-41.6 0-81.6 19.2-110.4 51.2-17.6 19.2-43.2 30.4-70.4 30.4s-52.8-11.2-70.4-32c-27.2-32-67.2-49.6-108.8-49.6-44.8 0-89.6 22.4-115.2 59.2-8 11.2-6.4 25.6 4.8 33.6s25.6 4.8 33.6-4.8c17.6-24 46.4-38.4 76.8-38.4 28.8 0 54.4 12.8 73.6 33.6 27.2 30.4 67.2 48 107.2 48s78.4-17.6 105.6-46.4c19.2-22.4 44.8-35.2 73.6-35.2s56 12.8 73.6 35.2c28.8 30.4 67.2 46.4 105.6 46.4 40 0 78.4-16 105.6-46.4 19.2-24 44.8-35.2 75.2-35.2s59.2 14.4 76.8 38.4c8 11.2 22.4 12.8 33.6 4.8s12.8-22.4 4.8-33.6c-25.6-35.2-70.4-57.6-115.2-57.6zM520 392c-44.8 0-80 35.2-80 80v64c0 44.8 35.2 80 80 80s80-35.2 80-80v-64c0-44.8-35.2-80-80-80zM520 568c-17.6 0-32-14.4-32-32v-64c0-17.6 14.4-32 32-32s32 14.4 32 32v64c0 17.6-14.4 32-32 32zM712 392c-44.8 0-80 35.2-80 80v64c0 44.8 35.2 80 80 80 27.2 0 51.2-12.8 65.6-35.2 8-11.2 4.8-25.6-6.4-33.6s-25.6-4.8-33.6 6.4c-6.4 9.6-16 14.4-27.2 14.4-17.6 0-32-14.4-32-32v-64c0-17.6 14.4-32 32-32 8 0 17.6 3.2 22.4 9.6 9.6 9.6 24 9.6 33.6 0s9.6-24 0-33.6c-12.8-16-32-24-54.4-24zM328 392c-33.6 0-62.4 20.8-75.2 51.2-4.8 12.8 1.6 25.6 14.4 30.4s25.6-1.6 30.4-14.4c4.8-12.8 16-20.8 30.4-20.8 17.6 0 32 14.4 32 32s-14.4 32-32 32h-8c-9.6 0-19.2 6.4-22.4 14.4-3.2 9.6-1.6 19.2 4.8 25.6l22.4 22.4h-36.8c-12.8 0-24 11.2-24 24s11.2 24 24 24h96c9.6 0 19.2-6.4 22.4-14.4 3.2-9.6 1.6-19.2-4.8-25.6l-33.6-32c24-14.4 40-40 40-68.8 0-44.8-35.2-80-80-80zM892.8 120h-768c-12.8 0-24 11.2-24 24s11.2 24 24 24h768c12.8 0 24-11.2 24-24s-9.6-24-24-24zM892.8-8h-768c-12.8 0-24 11.2-24 24s11.2 24 24 24h768c12.8 0 24-11.2 24-24s-9.6-24-24-24z" />
<glyph unicode="&#xe634;" d="M864 248h-704c-11.2 0-20.8 8-24 19.2l-128 608c-1.6 12.8 6.4 25.6 19.2 28.8s25.6-4.8 28.8-19.2l123.2-588.8h665.6l123.2 588.8c3.2 12.8 16 20.8 28.8 19.2 12.8-3.2 20.8-16 19.2-28.8l-128-608c-3.2-11.2-12.8-19.2-24-19.2zM720 528c-27.2 0-48 20.8-48 48s20.8 48 48 48 48-20.8 48-48-20.8-48-48-48zM720 592c-9.6 0-16-6.4-16-16s6.4-16 16-16 16 6.4 16 16-6.4 16-16 16zM872 696c-43.2 0-83.2 19.2-110.4 51.2-17.6 19.2-41.6 28.8-68.8 28.8s-51.2-11.2-70.4-30.4c-27.2-32-67.2-51.2-110.4-51.2-41.6 0-81.6 19.2-110.4 51.2-17.6 19.2-43.2 30.4-70.4 30.4s-52.8-11.2-70.4-32c-27.2-32-67.2-49.6-108.8-49.6-44.8 0-89.6 22.4-115.2 59.2-8 11.2-6.4 25.6 4.8 33.6s25.6 6.4 33.6-4.8c17.6-24 46.4-38.4 76.8-38.4 28.8 0 54.4 12.8 73.6 33.6 27.2 30.4 67.2 48 107.2 48s78.4-17.6 105.6-46.4c19.2-22.4 44.8-35.2 73.6-35.2s56 12.8 73.6 35.2c28.8 30.4 67.2 46.4 105.6 46.4 40 0 78.4-16 105.6-46.4 19.2-24 44.8-35.2 75.2-35.2s59.2 14.4 76.8 38.4c8 11.2 22.4 12.8 33.6 4.8s12.8-22.4 4.8-33.6c-25.6-35.2-70.4-57.6-115.2-57.6zM552 392c-44.8 0-80 35.2-80 80v64c0 44.8 35.2 80 80 80s80-35.2 80-80v-64c0-44.8-35.2-80-80-80zM552 568c-17.6 0-32-14.4-32-32v-64c0-17.6 14.4-32 32-32s32 14.4 32 32v64c0 17.6-14.4 32-32 32zM416 392c-12.8 0-24 11.2-24 24v176c0 12.8 11.2 24 24 24s24-11.2 24-24v-176c0-12.8-11.2-24-24-24zM416 440h-116.8c-8 0-16 4.8-20.8 11.2s-4.8 16-1.6 24l64 128c6.4 11.2 20.8 16 32 11.2 11.2-6.4 16-20.8 11.2-32l-46.4-92.8h78.4c12.8 0 24-11.2 24-24s-11.2-25.6-24-25.6zM880 120h-768c-12.8 0-24 11.2-24 24s11.2 24 24 24h768c12.8 0 24-11.2 24-24s-11.2-24-24-24zM880-8h-768c-12.8 0-24 11.2-24 24s11.2 24 24 24h768c12.8 0 24-11.2 24-24s-11.2-24-24-24z" />
<glyph unicode="&#xe635;" d="M864 248h-704c-11.2 0-20.8 8-24 19.2l-128 608c-1.6 12.8 6.4 25.6 19.2 28.8s25.6-4.8 28.8-19.2l123.2-588.8h665.6l123.2 588.8c3.2 12.8 16 20.8 28.8 19.2 12.8-3.2 20.8-16 19.2-28.8l-128-608c-3.2-11.2-12.8-19.2-24-19.2zM872 696c-43.2 0-83.2 19.2-110.4 51.2-17.6 19.2-41.6 28.8-68.8 28.8s-51.2-11.2-70.4-30.4c-27.2-32-67.2-51.2-110.4-51.2-41.6 0-81.6 19.2-110.4 51.2-17.6 19.2-43.2 30.4-70.4 30.4s-52.8-11.2-70.4-32c-27.2-32-67.2-49.6-108.8-49.6-44.8 0-89.6 22.4-115.2 59.2-8 11.2-6.4 25.6 4.8 33.6s25.6 4.8 33.6-4.8c17.6-24 46.4-38.4 76.8-38.4 28.8 0 54.4 12.8 73.6 33.6 27.2 30.4 67.2 48 107.2 48s78.4-17.6 105.6-46.4c19.2-22.4 44.8-35.2 73.6-35.2s56 12.8 73.6 35.2c28.8 30.4 67.2 46.4 105.6 46.4 40 0 78.4-16 105.6-46.4 19.2-24 44.8-35.2 75.2-35.2s59.2 14.4 76.8 38.4c8 11.2 22.4 12.8 33.6 4.8s12.8-22.4 4.8-33.6c-27.2-35.2-70.4-57.6-115.2-57.6zM520 392c-44.8 0-80 35.2-80 80v64c0 44.8 35.2 80 80 80s80-35.2 80-80v-64c0-44.8-36.8-80-80-80zM520 568c-17.6 0-32-14.4-32-32v-64c0-17.6 14.4-32 32-32s32 14.4 32 32v64c0 17.6-14.4 32-32 32zM712 392c-44.8 0-80 35.2-80 80v64c0 44.8 35.2 80 80 80 27.2 0 51.2-12.8 65.6-35.2 8-11.2 4.8-25.6-6.4-33.6s-25.6-4.8-33.6 6.4c-6.4 9.6-16 14.4-27.2 14.4-17.6 0-32-14.4-32-32v-64c0-17.6 14.4-32 32-32 8 0 17.6 3.2 22.4 9.6 9.6 9.6 24 9.6 33.6 0s9.6-24 0-33.6c-12.8-16-32-24-54.4-24zM384 392c-12.8 0-24 11.2-24 24v176c0 12.8 11.2 24 24 24s24-11.2 24-24v-176c0-12.8-11.2-24-24-24zM384 440h-116.8c-8 0-16 4.8-20.8 11.2s-4.8 16-1.6 24l64 128c6.4 11.2 20.8 16 32 11.2 11.2-6.4 16-20.8 11.2-32l-46.4-92.8h78.4c12.8 0 24-11.2 24-24s-11.2-25.6-24-25.6zM896 120h-768c-12.8 0-24 11.2-24 24s11.2 24 24 24h768c12.8 0 24-11.2 24-24s-11.2-24-24-24zM896-8h-768c-12.8 0-24 11.2-24 24s11.2 24 24 24h768c12.8 0 24-11.2 24-24s-11.2-24-24-24z" />
<glyph unicode="&#xe636;" d="M864 248h-704c-11.2 0-20.8 8-24 19.2l-128 608c-1.6 12.8 6.4 25.6 19.2 28.8s25.6-4.8 28.8-19.2l123.2-588.8h665.6l123.2 588.8c3.2 12.8 16 20.8 28.8 19.2 12.8-3.2 20.8-16 19.2-28.8l-128-608c-3.2-11.2-12.8-19.2-24-19.2zM720 528c-27.2 0-48 20.8-48 48s20.8 48 48 48 48-20.8 48-48-20.8-48-48-48zM720 592c-9.6 0-16-6.4-16-16s6.4-16 16-16 16 6.4 16 16-6.4 16-16 16zM872 696c-43.2 0-83.2 19.2-110.4 51.2-17.6 19.2-41.6 28.8-68.8 28.8s-51.2-11.2-70.4-30.4c-27.2-32-67.2-51.2-110.4-51.2-41.6 0-81.6 19.2-110.4 51.2-17.6 19.2-43.2 30.4-70.4 30.4s-52.8-11.2-70.4-32c-27.2-32-67.2-49.6-108.8-49.6-44.8 0-89.6 22.4-115.2 59.2-8 11.2-6.4 25.6 4.8 33.6s25.6 6.4 33.6-4.8c17.6-24 46.4-38.4 76.8-38.4 28.8 0 54.4 12.8 73.6 33.6 27.2 30.4 67.2 48 107.2 48s78.4-17.6 105.6-46.4c19.2-22.4 44.8-35.2 73.6-35.2s56 12.8 73.6 35.2c28.8 30.4 67.2 46.4 105.6 46.4 40 0 78.4-16 105.6-46.4 19.2-24 44.8-35.2 75.2-35.2s59.2 14.4 76.8 38.4c8 11.2 22.4 12.8 33.6 4.8s12.8-22.4 4.8-33.6c-25.6-35.2-70.4-57.6-115.2-57.6zM552 392c-44.8 0-80 35.2-80 80v64c0 44.8 35.2 80 80 80s80-35.2 80-80v-64c0-44.8-35.2-80-80-80zM552 568c-17.6 0-32-14.4-32-32v-64c0-17.6 14.4-32 32-32s32 14.4 32 32v64c0 17.6-14.4 32-32 32zM360 392c-27.2 0-54.4 14.4-68.8 38.4-6.4 11.2-3.2 25.6 8 33.6 11.2 6.4 25.6 3.2 33.6-8 6.4-9.6 16-16 27.2-16 17.6 0 32 14.4 32 32s-14.4 32-32 32h-48c-12.8 0-24 11.2-24 24v64c0 12.8 11.2 24 24 24h96c12.8 0 24-11.2 24-24s-11.2-24-24-24h-72v-16h24c44.8 0 80-35.2 80-80s-36.8-80-80-80zM896 120h-768c-12.8 0-24 11.2-24 24s11.2 24 24 24h768c12.8 0 24-11.2 24-24s-11.2-24-24-24zM896-8h-768c-12.8 0-24 11.2-24 24s11.2 24 24 24h768c12.8 0 24-11.2 24-24s-11.2-24-24-24z" />
<glyph unicode="&#xe637;" d="M864 248h-704c-11.2 0-20.8 8-24 19.2l-128 608c-1.6 12.8 6.4 25.6 19.2 28.8s25.6-4.8 28.8-19.2l123.2-588.8h665.6l123.2 588.8c3.2 12.8 16 20.8 28.8 19.2 12.8-3.2 20.8-16 19.2-28.8l-128-608c-3.2-11.2-12.8-19.2-24-19.2zM872 696c-43.2 0-83.2 19.2-110.4 51.2-17.6 19.2-41.6 28.8-68.8 28.8s-51.2-11.2-70.4-30.4c-27.2-32-67.2-51.2-110.4-51.2-41.6 0-81.6 19.2-110.4 51.2-17.6 19.2-43.2 30.4-70.4 30.4s-52.8-11.2-70.4-32c-27.2-32-67.2-49.6-108.8-49.6-44.8 0-89.6 22.4-115.2 59.2-8 11.2-6.4 25.6 4.8 33.6s25.6 6.4 33.6-4.8c17.6-25.6 46.4-38.4 76.8-38.4 28.8 0 54.4 12.8 73.6 33.6 27.2 30.4 67.2 48 107.2 48s78.4-17.6 105.6-46.4c19.2-22.4 44.8-35.2 73.6-35.2s56 12.8 73.6 35.2c28.8 30.4 67.2 46.4 105.6 46.4 40 0 78.4-16 105.6-46.4 19.2-24 44.8-35.2 75.2-35.2s59.2 14.4 76.8 38.4c8 11.2 22.4 12.8 33.6 4.8s12.8-22.4 4.8-33.6c-27.2-35.2-70.4-57.6-115.2-57.6zM520 392c-44.8 0-80 35.2-80 80v64c0 44.8 35.2 80 80 80s80-35.2 80-80v-64c0-44.8-36.8-80-80-80zM520 568c-17.6 0-32-14.4-32-32v-64c0-17.6 14.4-32 32-32s32 14.4 32 32v64c0 17.6-14.4 32-32 32zM712 392c-44.8 0-80 35.2-80 80v64c0 44.8 35.2 80 80 80 27.2 0 51.2-12.8 65.6-35.2 8-11.2 4.8-25.6-6.4-33.6s-25.6-4.8-33.6 6.4c-6.4 9.6-16 14.4-27.2 14.4-17.6 0-32-14.4-32-32v-64c0-17.6 14.4-32 32-32 8 0 17.6 3.2 22.4 9.6 9.6 9.6 24 9.6 33.6 0s9.6-24 0-33.6c-12.8-16-32-24-54.4-24zM328 392c-27.2 0-54.4 14.4-68.8 38.4-6.4 11.2-3.2 25.6 8 33.6 11.2 6.4 25.6 3.2 33.6-8 6.4-9.6 16-16 27.2-16 17.6 0 32 14.4 32 32s-14.4 32-32 32h-48c-12.8 0-24 11.2-24 24v64c0 12.8 11.2 24 24 24h96c12.8 0 24-11.2 24-24s-11.2-24-24-24h-72v-16h24c44.8 0 80-35.2 80-80s-36.8-80-80-80zM896 120h-768c-12.8 0-24 11.2-24 24s11.2 24 24 24h768c12.8 0 24-11.2 24-24s-11.2-24-24-24zM896-8h-768c-12.8 0-24 11.2-24 24s11.2 24 24 24h768c12.8 0 24-11.2 24-24s-11.2-24-24-24z" />
<glyph unicode="&#xe638;" d="M864 248h-704c-11.2 0-20.8 8-24 19.2l-128 608c-1.6 12.8 6.4 25.6 19.2 28.8s25.6-4.8 28.8-19.2l123.2-588.8h665.6l123.2 588.8c3.2 12.8 16 20.8 28.8 19.2 12.8-3.2 20.8-16 19.2-28.8l-128-608c-3.2-11.2-12.8-19.2-24-19.2zM720 528c-27.2 0-48 20.8-48 48s20.8 48 48 48 48-20.8 48-48-20.8-48-48-48zM720 592c-9.6 0-16-6.4-16-16s6.4-16 16-16 16 6.4 16 16-6.4 16-16 16zM872 696c-43.2 0-83.2 19.2-110.4 51.2-17.6 19.2-41.6 28.8-68.8 28.8s-51.2-11.2-70.4-30.4c-27.2-32-67.2-51.2-110.4-51.2-41.6 0-81.6 19.2-110.4 51.2-17.6 19.2-43.2 30.4-70.4 30.4s-52.8-11.2-70.4-32c-27.2-32-67.2-49.6-108.8-49.6-44.8 0-89.6 22.4-115.2 59.2-8 11.2-6.4 25.6 4.8 33.6s25.6 6.4 33.6-4.8c17.6-24 46.4-38.4 76.8-38.4 28.8 0 54.4 12.8 73.6 33.6 27.2 30.4 67.2 48 107.2 48s78.4-17.6 105.6-46.4c19.2-22.4 44.8-35.2 73.6-35.2s56 12.8 73.6 35.2c28.8 30.4 67.2 46.4 105.6 46.4 40 0 78.4-16 105.6-46.4 19.2-24 44.8-35.2 75.2-35.2s59.2 14.4 76.8 38.4c8 11.2 22.4 12.8 33.6 4.8s12.8-22.4 4.8-33.6c-25.6-35.2-70.4-57.6-115.2-57.6zM552 392c-44.8 0-80 35.2-80 80v64c0 44.8 35.2 80 80 80s80-35.2 80-80v-64c0-44.8-35.2-80-80-80zM552 568c-17.6 0-32-14.4-32-32v-64c0-17.6 14.4-32 32-32s32 14.4 32 32v64c0 17.6-14.4 32-32 32zM304 448c-12.8 0-24 11.2-24 24v64c0 44.8 35.2 80 80 80 20.8 0 41.6-8 56-24 9.6-9.6 9.6-24 0-33.6s-24-9.6-33.6 0c-6.4 6.4-14.4 9.6-22.4 9.6-17.6 0-32-14.4-32-32v-64c0-12.8-11.2-24-24-24zM360 392c-44.8 0-80 35.2-80 80s35.2 80 80 80 80-35.2 80-80-35.2-80-80-80zM360 504c-17.6 0-32-14.4-32-32s14.4-32 32-32 32 14.4 32 32-14.4 32-32 32zM896 120h-768c-12.8 0-24 11.2-24 24s11.2 24 24 24h768c12.8 0 24-11.2 24-24s-11.2-24-24-24zM896-8h-768c-12.8 0-24 11.2-24 24s11.2 24 24 24h768c12.8 0 24-11.2 24-24s-11.2-24-24-24z" />
<glyph unicode="&#xe639;" d="M864 248h-704c-11.2 0-20.8 8-24 19.2l-128 608c-1.6 12.8 6.4 25.6 19.2 28.8s25.6-4.8 28.8-19.2l123.2-588.8h665.6l123.2 588.8c3.2 12.8 16 20.8 28.8 19.2 12.8-3.2 20.8-16 19.2-28.8l-128-608c-3.2-11.2-12.8-19.2-24-19.2zM872 696c-43.2 0-83.2 19.2-110.4 51.2-17.6 19.2-41.6 28.8-68.8 28.8s-51.2-11.2-70.4-30.4c-27.2-32-67.2-51.2-110.4-51.2-41.6 0-81.6 19.2-110.4 51.2-17.6 19.2-43.2 30.4-70.4 30.4s-52.8-11.2-70.4-32c-27.2-32-67.2-49.6-108.8-49.6-44.8 0-89.6 22.4-115.2 59.2-8 11.2-6.4 25.6 4.8 33.6s25.6 6.4 33.6-4.8c17.6-24 46.4-38.4 76.8-38.4 28.8 0 54.4 12.8 73.6 33.6 27.2 30.4 67.2 48 107.2 48s78.4-17.6 105.6-46.4c19.2-22.4 44.8-35.2 73.6-35.2s56 12.8 73.6 35.2c28.8 30.4 67.2 46.4 105.6 46.4 40 0 78.4-16 105.6-46.4 19.2-24 44.8-35.2 75.2-35.2s59.2 14.4 76.8 38.4c8 11.2 22.4 12.8 33.6 4.8s12.8-22.4 4.8-33.6c-25.6-35.2-70.4-57.6-115.2-57.6zM520 392c-44.8 0-80 35.2-80 80v64c0 44.8 35.2 80 80 80s80-35.2 80-80v-64c0-44.8-35.2-80-80-80zM520 568c-17.6 0-32-14.4-32-32v-64c0-17.6 14.4-32 32-32s32 14.4 32 32v64c0 17.6-14.4 32-32 32zM712 392c-44.8 0-80 35.2-80 80v64c0 44.8 35.2 80 80 80 27.2 0 51.2-12.8 65.6-35.2 8-11.2 4.8-25.6-6.4-33.6s-25.6-4.8-33.6 6.4c-6.4 9.6-16 14.4-27.2 14.4-17.6 0-32-14.4-32-32v-64c0-17.6 14.4-32 32-32 8 0 17.6 3.2 22.4 9.6 9.6 9.6 24 9.6 33.6 0s9.6-24 0-33.6c-12.8-16-32-24-54.4-24zM272 448c-12.8 0-24 11.2-24 24v64c0 44.8 35.2 80 80 80 20.8 0 41.6-8 56-24 9.6-9.6 9.6-24 0-33.6s-24-9.6-33.6 0c-6.4 6.4-14.4 9.6-22.4 9.6-17.6 0-32-14.4-32-32v-64c0-12.8-11.2-24-24-24zM328 392c-44.8 0-80 35.2-80 80s35.2 80 80 80 80-35.2 80-80-35.2-80-80-80zM328 504c-17.6 0-32-14.4-32-32s14.4-32 32-32 32 14.4 32 32-14.4 32-32 32zM896 120h-768c-12.8 0-24 11.2-24 24s11.2 24 24 24h768c12.8 0 24-11.2 24-24s-11.2-24-24-24zM896-8h-768c-12.8 0-24 11.2-24 24s11.2 24 24 24h768c12.8 0 24-11.2 24-24s-11.2-24-24-24z" />
<glyph unicode="&#xe63a;" d="M864 248h-704c-11.2 0-20.8 8-24 19.2l-128 608c-1.6 12.8 6.4 25.6 19.2 28.8s25.6-4.8 28.8-19.2l123.2-588.8h665.6l123.2 588.8c3.2 12.8 16 20.8 28.8 19.2 12.8-3.2 20.8-16 19.2-28.8l-128-608c-3.2-11.2-12.8-19.2-24-19.2zM720 528c-27.2 0-48 20.8-48 48s20.8 48 48 48 48-20.8 48-48-20.8-48-48-48zM720 592c-9.6 0-16-6.4-16-16s6.4-16 16-16 16 6.4 16 16-6.4 16-16 16zM872 696c-43.2 0-83.2 19.2-110.4 51.2-17.6 19.2-41.6 28.8-68.8 28.8s-51.2-11.2-70.4-30.4c-27.2-32-67.2-51.2-110.4-51.2-41.6 0-81.6 19.2-110.4 51.2-17.6 19.2-43.2 30.4-70.4 30.4s-52.8-11.2-70.4-32c-27.2-32-67.2-49.6-108.8-49.6-44.8 0-89.6 22.4-115.2 59.2-8 11.2-6.4 25.6 4.8 33.6s25.6 4.8 33.6-4.8c17.6-25.6 46.4-38.4 76.8-38.4 28.8 0 54.4 12.8 73.6 33.6 27.2 30.4 67.2 48 107.2 48s78.4-17.6 105.6-46.4c19.2-22.4 44.8-35.2 73.6-35.2s56 12.8 73.6 35.2c28.8 30.4 67.2 46.4 105.6 46.4 40 0 78.4-16 105.6-46.4 19.2-24 44.8-35.2 75.2-35.2s59.2 14.4 76.8 38.4c8 11.2 22.4 12.8 33.6 4.8s12.8-22.4 4.8-33.6c-25.6-35.2-70.4-57.6-115.2-57.6zM552 392c-44.8 0-80 35.2-80 80v64c0 44.8 35.2 80 80 80s80-35.2 80-80v-64c0-44.8-35.2-80-80-80zM552 568c-17.6 0-32-14.4-32-32v-64c0-17.6 14.4-32 32-32s32 14.4 32 32v64c0 17.6-14.4 32-32 32zM352 392c-3.2 0-4.8 0-8 1.6-12.8 4.8-19.2 17.6-14.4 30.4l52.8 144h-62.4c-12.8 0-24 11.2-24 24s11.2 24 24 24h96c8 0 14.4-3.2 19.2-9.6s4.8-14.4 3.2-22.4l-64-176c-3.2-9.6-12.8-16-22.4-16zM896 120h-768c-12.8 0-24 11.2-24 24s11.2 24 24 24h768c12.8 0 24-11.2 24-24s-11.2-24-24-24zM896-8h-768c-12.8 0-24 11.2-24 24s11.2 24 24 24h768c12.8 0 24-11.2 24-24s-11.2-24-24-24z" />
<glyph unicode="&#xe63b;" d="M864 248h-704c-11.2 0-20.8 8-24 19.2l-128 608c-1.6 12.8 6.4 25.6 19.2 28.8s25.6-4.8 28.8-19.2l123.2-588.8h665.6l123.2 588.8c3.2 12.8 16 20.8 28.8 19.2 12.8-3.2 20.8-16 19.2-28.8l-128-608c-3.2-11.2-12.8-19.2-24-19.2zM872 696c-43.2 0-83.2 19.2-110.4 51.2-17.6 19.2-41.6 28.8-68.8 28.8s-51.2-11.2-70.4-30.4c-27.2-32-67.2-51.2-110.4-51.2-41.6 0-81.6 19.2-110.4 51.2-17.6 19.2-43.2 30.4-70.4 30.4s-52.8-11.2-70.4-32c-27.2-32-67.2-49.6-108.8-49.6-44.8 0-89.6 22.4-115.2 59.2-8 11.2-6.4 25.6 4.8 33.6s25.6 6.4 33.6-4.8c17.6-24 46.4-38.4 76.8-38.4 28.8 0 54.4 12.8 73.6 33.6 27.2 30.4 67.2 48 107.2 48s78.4-17.6 105.6-46.4c19.2-22.4 44.8-35.2 73.6-35.2s56 12.8 73.6 35.2c28.8 30.4 67.2 46.4 105.6 46.4 40 0 78.4-16 105.6-46.4 19.2-24 44.8-35.2 75.2-35.2s59.2 14.4 76.8 38.4c8 11.2 22.4 12.8 33.6 4.8s12.8-22.4 4.8-33.6c-25.6-35.2-70.4-57.6-115.2-57.6zM520 392c-44.8 0-80 35.2-80 80v64c0 44.8 35.2 80 80 80s80-35.2 80-80v-64c0-44.8-35.2-80-80-80zM520 568c-17.6 0-32-14.4-32-32v-64c0-17.6 14.4-32 32-32s32 14.4 32 32v64c0 17.6-14.4 32-32 32zM712 392c-44.8 0-80 35.2-80 80v64c0 44.8 35.2 80 80 80 27.2 0 51.2-12.8 65.6-35.2 8-11.2 4.8-25.6-6.4-33.6s-25.6-4.8-33.6 6.4c-6.4 9.6-16 14.4-27.2 14.4-17.6 0-32-14.4-32-32v-64c0-17.6 14.4-32 32-32 8 0 17.6 3.2 22.4 9.6 9.6 9.6 24 9.6 33.6 0s9.6-24 0-33.6c-12.8-16-32-24-54.4-24zM320 392c-3.2 0-4.8 0-8 1.6-12.8 4.8-19.2 17.6-14.4 30.4l52.8 144h-62.4c-12.8 0-24 11.2-24 24s11.2 24 24 24h96c8 0 14.4-3.2 19.2-9.6s4.8-14.4 3.2-22.4l-64-176c-3.2-9.6-12.8-16-22.4-16zM896 120h-768c-12.8 0-24 11.2-24 24s11.2 24 24 24h768c12.8 0 24-11.2 24-24s-11.2-24-24-24zM896-8h-768c-12.8 0-24 11.2-24 24s11.2 24 24 24h768c12.8 0 24-11.2 24-24s-11.2-24-24-24z" />
<glyph unicode="&#xe63c;" d="M864 248h-704c-11.2 0-20.8 8-24 19.2l-128 608c-1.6 12.8 6.4 25.6 19.2 28.8s25.6-4.8 28.8-19.2l123.2-588.8h665.6l123.2 588.8c3.2 12.8 16 20.8 28.8 19.2 12.8-3.2 20.8-16 19.2-28.8l-128-608c-3.2-11.2-12.8-19.2-24-19.2zM720 528c-27.2 0-48 20.8-48 48s20.8 48 48 48 48-20.8 48-48-20.8-48-48-48zM720 592c-9.6 0-16-6.4-16-16s6.4-16 16-16 16 6.4 16 16-6.4 16-16 16zM872 696c-43.2 0-83.2 19.2-110.4 51.2-17.6 19.2-41.6 28.8-68.8 28.8s-51.2-11.2-70.4-30.4c-27.2-32-67.2-51.2-110.4-51.2-41.6 0-81.6 19.2-110.4 51.2-17.6 19.2-43.2 30.4-70.4 30.4s-52.8-11.2-70.4-32c-27.2-32-67.2-49.6-108.8-49.6-44.8 0-89.6 22.4-115.2 59.2-8 11.2-6.4 25.6 4.8 33.6s25.6 6.4 33.6-4.8c17.6-25.6 46.4-38.4 76.8-38.4 28.8 0 54.4 12.8 73.6 33.6 27.2 30.4 67.2 48 107.2 48s78.4-17.6 105.6-46.4c19.2-22.4 44.8-35.2 73.6-35.2s56 12.8 73.6 35.2c28.8 30.4 67.2 46.4 105.6 46.4 40 0 78.4-16 105.6-46.4 19.2-24 44.8-35.2 75.2-35.2s59.2 14.4 76.8 38.4c8 11.2 22.4 12.8 33.6 4.8s12.8-22.4 4.8-33.6c-25.6-35.2-70.4-57.6-115.2-57.6zM360 392c-20.8 0-41.6 8-56 24-9.6 9.6-9.6 24 0 33.6s24 9.6 33.6 0c6.4-6.4 14.4-9.6 22.4-9.6 17.6 0 32 14.4 32 32v64c0 12.8 11.2 24 24 24s24-11.2 24-24v-64c0-44.8-35.2-80-80-80zM360 456c-44.8 0-80 35.2-80 80s35.2 80 80 80 80-35.2 80-80-35.2-80-80-80zM360 568c-17.6 0-32-14.4-32-32s14.4-32 32-32 32 14.4 32 32-14.4 32-32 32zM544 392c-28.8 0-54.4 14.4-68.8 38.4-6.4 11.2-3.2 25.6 8 33.6 11.2 6.4 25.6 3.2 33.6-8 6.4-9.6 16-16 27.2-16 17.6 0 32 14.4 32 32s-14.4 32-32 32h-48c-12.8 0-24 11.2-24 24v64c0 12.8 11.2 24 24 24h96c12.8 0 24-11.2 24-24s-11.2-24-24-24h-72v-16h24c44.8 0 80-35.2 80-80s-35.2-80-80-80zM896 120h-768c-12.8 0-24 11.2-24 24s11.2 24 24 24h768c12.8 0 24-11.2 24-24s-11.2-24-24-24zM896-8h-768c-12.8 0-24 11.2-24 24s11.2 24 24 24h768c12.8 0 24-11.2 24-24s-11.2-24-24-24z" />
<glyph unicode="&#xe63d;" d="M864 248h-704c-11.2 0-20.8 8-24 19.2l-128 608c-1.6 12.8 6.4 25.6 19.2 28.8s25.6-4.8 28.8-19.2l123.2-588.8h665.6l123.2 588.8c3.2 12.8 16 20.8 28.8 19.2 12.8-3.2 20.8-16 19.2-28.8l-128-608c-3.2-11.2-12.8-19.2-24-19.2zM872 696c-43.2 0-83.2 19.2-110.4 51.2-17.6 19.2-41.6 28.8-68.8 28.8s-51.2-11.2-70.4-30.4c-27.2-32-67.2-51.2-110.4-51.2-41.6 0-81.6 19.2-110.4 51.2-17.6 19.2-43.2 30.4-70.4 30.4s-52.8-11.2-70.4-32c-27.2-32-67.2-49.6-108.8-49.6-44.8 0-89.6 22.4-115.2 59.2-8 11.2-6.4 25.6 4.8 33.6s25.6 6.4 33.6-4.8c17.6-24 46.4-38.4 76.8-38.4 28.8 0 54.4 12.8 73.6 33.6 27.2 30.4 67.2 48 107.2 48s78.4-17.6 105.6-46.4c19.2-22.4 44.8-35.2 73.6-35.2s56 12.8 73.6 35.2c28.8 30.4 67.2 46.4 105.6 46.4 40 0 78.4-16 105.6-46.4 19.2-24 44.8-35.2 75.2-35.2s59.2 14.4 76.8 38.4c8 11.2 22.4 12.8 33.6 4.8s12.8-22.4 4.8-33.6c-25.6-35.2-70.4-57.6-115.2-57.6zM712 392c-44.8 0-80 35.2-80 80v64c0 44.8 35.2 80 80 80 27.2 0 51.2-12.8 65.6-35.2 8-11.2 4.8-25.6-6.4-33.6s-25.6-4.8-33.6 6.4c-6.4 9.6-16 14.4-27.2 14.4-17.6 0-32-14.4-32-32v-64c0-17.6 14.4-32 32-32 8 0 17.6 3.2 22.4 9.6 9.6 9.6 24 9.6 33.6 0s9.6-24 0-33.6c-12.8-16-32-24-54.4-24zM336 392c-20.8 0-41.6 8-56 24-9.6 9.6-9.6 24 0 33.6s24 9.6 33.6 0c6.4-6.4 14.4-9.6 22.4-9.6 17.6 0 32 14.4 32 32v64c0 12.8 11.2 24 24 24s24-11.2 24-24v-64c0-44.8-35.2-80-80-80zM336 456c-44.8 0-80 35.2-80 80s35.2 80 80 80 80-35.2 80-80-35.2-80-80-80zM336 568c-17.6 0-32-14.4-32-32s14.4-32 32-32 32 14.4 32 32-14.4 32-32 32zM520 392c-27.2 0-54.4 14.4-68.8 38.4-6.4 11.2-3.2 25.6 8 33.6 11.2 6.4 25.6 3.2 33.6-8 6.4-9.6 16-16 27.2-16 17.6 0 32 14.4 32 32s-14.4 32-32 32h-48c-12.8 0-24 11.2-24 24v64c0 12.8 11.2 24 24 24h96c12.8 0 24-11.2 24-24s-11.2-24-24-24h-72v-16h24c44.8 0 80-35.2 80-80s-35.2-80-80-80zM896 120h-768c-12.8 0-24 11.2-24 24s11.2 24 24 24h768c12.8 0 24-11.2 24-24s-11.2-24-24-24zM896-8h-768c-12.8 0-24 11.2-24 24s11.2 24 24 24h768c12.8 0 24-11.2 24-24s-11.2-24-24-24z" />
<glyph unicode="&#xe63e;" d="M864 244.8h-704c-11.2 0-20.8 8-24 19.2l-128 608c-1.6 12.8 6.4 25.6 19.2 28.8s25.6-4.8 28.8-17.6l123.2-588.8h665.6l123.2 588.8c3.2 12.8 16 20.8 28.8 19.2 12.8-3.2 20.8-16 19.2-28.8l-128-608c-3.2-12.8-12.8-20.8-24-20.8zM872 692.8c-43.2 0-83.2 19.2-110.4 51.2-17.6 19.2-41.6 28.8-68.8 28.8s-51.2-11.2-70.4-30.4c-27.2-32-67.2-51.2-110.4-51.2-41.6 0-81.6 19.2-110.4 51.2-17.6 19.2-43.2 30.4-70.4 30.4s-52.8-11.2-70.4-32c-27.2-32-67.2-49.6-108.8-49.6-44.8 0-89.6 22.4-115.2 59.2-8 11.2-6.4 25.6 4.8 33.6s25.6 6.4 33.6-4.8c17.6-25.6 46.4-38.4 76.8-38.4 28.8 0 54.4 12.8 73.6 33.6 27.2 30.4 67.2 48 107.2 48s78.4-17.6 105.6-46.4c19.2-22.4 44.8-35.2 73.6-35.2s56 12.8 73.6 35.2c28.8 30.4 67.2 46.4 105.6 46.4 40 0 78.4-16 105.6-46.4 19.2-24 44.8-35.2 75.2-35.2s59.2 14.4 76.8 38.4c8 11.2 22.4 12.8 33.6 4.8s12.8-22.4 4.8-33.6c-25.6-35.2-70.4-57.6-115.2-57.6zM560 508.8c0-26.51-21.49-48-48-48s-48 21.49-48 48c0 26.51 21.49 48 48 48s48-21.49 48-48zM896 116.8h-768c-12.8 0-24 11.2-24 24s11.2 24 24 24h768c12.8 0 24-11.2 24-24s-11.2-24-24-24zM896-4.8h-768c-12.8 0-24 11.2-24 24s11.2 24 24 24h768c12.8 0 24-11.2 24-24s-11.2-24-24-24z" />
<glyph unicode="&#xe63f;" d="M864 248h-704c-11.2 0-20.8 8-24 19.2l-128 608c-1.6 12.8 6.4 25.6 19.2 28.8s25.6-4.8 28.8-19.2l123.2-588.8h665.6l123.2 588.8c3.2 12.8 16 20.8 28.8 19.2 12.8-3.2 20.8-16 19.2-28.8l-128-608c-3.2-11.2-12.8-19.2-24-19.2zM872 696c-43.2 0-83.2 19.2-110.4 51.2-17.6 19.2-41.6 28.8-68.8 28.8s-51.2-11.2-70.4-30.4c-27.2-32-67.2-51.2-110.4-51.2-41.6 0-81.6 19.2-110.4 51.2-17.6 19.2-43.2 30.4-70.4 30.4s-52.8-11.2-70.4-32c-27.2-32-67.2-49.6-108.8-49.6-44.8 0-89.6 22.4-115.2 59.2-8 11.2-6.4 25.6 4.8 33.6s25.6 6.4 33.6-4.8c17.6-25.6 46.4-38.4 76.8-38.4 28.8 0 54.4 12.8 73.6 33.6 27.2 30.4 67.2 48 107.2 48s78.4-17.6 105.6-46.4c19.2-22.4 44.8-35.2 73.6-35.2s56 12.8 73.6 35.2c28.8 30.4 67.2 46.4 105.6 46.4 40 0 78.4-16 105.6-46.4 19.2-24 44.8-35.2 75.2-35.2s59.2 14.4 76.8 38.4c8 11.2 22.4 12.8 33.6 4.8s12.8-22.4 4.8-33.6c-25.6-35.2-70.4-57.6-115.2-57.6zM464 592c0-26.51-21.49-48-48-48s-48 21.49-48 48c0 26.51 21.49 48 48 48s48-21.49 48-48zM656 592c0-26.51-21.49-48-48-48s-48 21.49-48 48c0 26.51 21.49 48 48 48s48-21.49 48-48zM464 416c0-26.51-21.49-48-48-48s-48 21.49-48 48c0 26.51 21.49 48 48 48s48-21.49 48-48zM656 416c0-26.51-21.49-48-48-48s-48 21.49-48 48c0 26.51 21.49 48 48 48s48-21.49 48-48zM896 120h-768c-12.8 0-24 11.2-24 24s11.2 24 24 24h768c12.8 0 24-11.2 24-24s-11.2-24-24-24zM897.6-8h-768c-12.8 0-24 11.2-24 24s11.2 24 24 24h768c12.8 0 24-11.2 24-24s-9.6-24-24-24z" />
<glyph unicode="&#xe640;" d="M864 248h-704c-11.2 0-20.8 8-24 19.2l-128 608c-1.6 12.8 6.4 25.6 19.2 28.8s25.6-4.8 28.8-19.2l123.2-588.8h665.6l123.2 588.8c3.2 12.8 16 20.8 28.8 19.2 12.8-3.2 20.8-16 19.2-28.8l-128-608c-3.2-11.2-12.8-19.2-24-19.2zM872 696c-43.2 0-83.2 19.2-110.4 51.2-17.6 19.2-41.6 28.8-68.8 28.8s-51.2-11.2-70.4-30.4c-27.2-32-67.2-51.2-110.4-51.2-41.6 0-81.6 19.2-110.4 51.2-17.6 19.2-43.2 30.4-70.4 30.4s-52.8-11.2-70.4-32c-27.2-32-67.2-49.6-108.8-49.6-44.8 0-89.6 22.4-115.2 59.2-8 11.2-6.4 25.6 4.8 33.6s25.6 6.4 33.6-4.8c17.6-25.6 46.4-38.4 76.8-38.4 28.8 0 54.4 12.8 73.6 33.6 27.2 30.4 67.2 48 107.2 48s78.4-17.6 105.6-46.4c19.2-22.4 44.8-35.2 73.6-35.2s56 12.8 73.6 35.2c28.8 30.4 67.2 46.4 105.6 46.4 40 0 78.4-16 105.6-46.4 19.2-24 44.8-35.2 75.2-35.2s59.2 14.4 76.8 38.4c8 11.2 22.4 12.8 33.6 4.8s12.8-22.4 4.8-33.6c-25.6-35.2-70.4-57.6-115.2-57.6zM464 416c0-26.51-21.49-48-48-48s-48 21.49-48 48c0 26.51 21.49 48 48 48s48-21.49 48-48zM656 416c0-26.51-21.49-48-48-48s-48 21.49-48 48c0 26.51 21.49 48 48 48s48-21.49 48-48zM560 592c0-26.51-21.49-48-48-48s-48 21.49-48 48c0 26.51 21.49 48 48 48s48-21.49 48-48zM752 592c0-26.51-21.49-48-48-48s-48 21.49-48 48c0 26.51 21.49 48 48 48s48-21.49 48-48zM368 592c0-26.51-21.49-48-48-48s-48 21.49-48 48c0 26.51 21.49 48 48 48s48-21.49 48-48zM897.6 120h-768c-12.8 0-24 11.2-24 24s11.2 24 24 24h768c12.8 0 24-11.2 24-24s-11.2-24-24-24zM897.6-8h-768c-12.8 0-24 11.2-24 24s11.2 24 24 24h768c12.8 0 24-11.2 24-24s-9.6-24-24-24z" />
<glyph unicode="&#xe641;" d="M864 248h-704c-11.2 0-20.8 8-24 19.2l-128 608c-1.6 12.8 6.4 25.6 19.2 28.8s25.6-4.8 28.8-19.2l123.2-588.8h665.6l123.2 588.8c3.2 12.8 16 20.8 28.8 19.2 12.8-3.2 20.8-16 19.2-28.8l-128-608c-3.2-11.2-12.8-19.2-24-19.2zM872 696c-43.2 0-83.2 19.2-110.4 51.2-17.6 19.2-41.6 28.8-68.8 28.8s-51.2-11.2-70.4-30.4c-27.2-32-67.2-51.2-110.4-51.2-41.6 0-81.6 19.2-110.4 51.2-17.6 19.2-43.2 30.4-70.4 30.4s-52.8-11.2-70.4-32c-27.2-32-67.2-49.6-108.8-49.6-44.8 0-89.6 22.4-115.2 59.2-8 11.2-6.4 25.6 4.8 33.6s25.6 6.4 33.6-4.8c17.6-25.6 46.4-38.4 76.8-38.4 28.8 0 54.4 12.8 73.6 33.6 27.2 30.4 67.2 48 107.2 48s78.4-17.6 105.6-46.4c19.2-22.4 44.8-35.2 73.6-35.2s56 12.8 73.6 35.2c28.8 30.4 67.2 46.4 105.6 46.4 40 0 78.4-16 105.6-46.4 19.2-24 44.8-35.2 75.2-35.2s59.2 14.4 76.8 38.4c8 11.2 22.4 12.8 33.6 4.8s12.8-22.4 4.8-33.6c-25.6-35.2-70.4-57.6-115.2-57.6zM560 592c0-26.51-21.49-48-48-48s-48 21.49-48 48c0 26.51 21.49 48 48 48s48-21.49 48-48zM752 592c0-26.51-21.49-48-48-48s-48 21.49-48 48c0 26.51 21.49 48 48 48s48-21.49 48-48zM368 592c0-26.51-21.49-48-48-48s-48 21.49-48 48c0 26.51 21.49 48 48 48s48-21.49 48-48zM560 416c0-26.51-21.49-48-48-48s-48 21.49-48 48c0 26.51 21.49 48 48 48s48-21.49 48-48zM752 416c0-26.51-21.49-48-48-48s-48 21.49-48 48c0 26.51 21.49 48 48 48s48-21.49 48-48zM368 416c0-26.51-21.49-48-48-48s-48 21.49-48 48c0 26.51 21.49 48 48 48s48-21.49 48-48zM896 120h-768c-12.8 0-24 11.2-24 24s11.2 24 24 24h768c12.8 0 24-11.2 24-24s-11.2-24-24-24zM896-8h-768c-12.8 0-24 11.2-24 24s11.2 24 24 24h768c12.8 0 24-11.2 24-24s-11.2-24-24-24z" />
<glyph unicode="&#xe642;" d="M864 248h-704c-11.2 0-20.8 8-24 19.2l-128 608c-1.6 12.8 6.4 25.6 19.2 28.8s25.6-4.8 28.8-19.2l123.2-588.8h665.6l123.2 588.8c3.2 12.8 16 20.8 28.8 19.2 12.8-3.2 20.8-16 19.2-28.8l-128-608c-3.2-11.2-12.8-19.2-24-19.2zM872 696c-43.2 0-83.2 19.2-110.4 51.2-17.6 19.2-41.6 28.8-68.8 28.8s-51.2-11.2-70.4-30.4c-27.2-32-67.2-51.2-110.4-51.2-41.6 0-81.6 19.2-110.4 51.2-17.6 19.2-43.2 30.4-70.4 30.4s-52.8-11.2-70.4-32c-27.2-32-67.2-49.6-108.8-49.6-44.8 0-89.6 22.4-115.2 59.2-8 11.2-6.4 25.6 4.8 33.6s25.6 6.4 33.6-4.8c17.6-25.6 46.4-38.4 76.8-38.4 28.8 0 54.4 12.8 73.6 33.6 27.2 30.4 67.2 48 107.2 48s78.4-17.6 105.6-46.4c19.2-22.4 44.8-35.2 73.6-35.2s56 12.8 73.6 35.2c28.8 30.4 67.2 46.4 105.6 46.4 40 0 78.4-16 105.6-46.4 19.2-24 44.8-35.2 75.2-35.2s59.2 14.4 76.8 38.4c8 11.2 22.4 12.8 33.6 4.8s12.8-22.4 4.8-33.6c-25.6-35.2-70.4-57.6-115.2-57.6zM560 512c0-26.51-21.49-48-48-48s-48 21.49-48 48c0 26.51 21.49 48 48 48s48-21.49 48-48zM752 512c0-26.51-21.49-48-48-48s-48 21.49-48 48c0 26.51 21.49 48 48 48s48-21.49 48-48zM368 512c0-26.51-21.49-48-48-48s-48 21.49-48 48c0 26.51 21.49 48 48 48s48-21.49 48-48zM896 120h-768c-12.8 0-24 11.2-24 24s11.2 24 24 24h768c12.8 0 24-11.2 24-24s-11.2-24-24-24zM896-8h-768c-12.8 0-24 11.2-24 24s11.2 24 24 24h768c12.8 0 24-11.2 24-24s-11.2-24-24-24z" />
<glyph unicode="&#xe643;" d="M864 248h-704c-11.2 0-20.8 8-24 19.2l-128 608c-1.6 12.8 6.4 25.6 19.2 28.8s25.6-4.8 28.8-19.2l123.2-588.8h665.6l123.2 588.8c3.2 12.8 16 20.8 28.8 19.2 12.8-3.2 20.8-16 19.2-28.8l-128-608c-3.2-11.2-12.8-19.2-24-19.2zM872 696c-43.2 0-83.2 19.2-110.4 51.2-17.6 19.2-41.6 28.8-68.8 28.8s-51.2-11.2-70.4-30.4c-27.2-32-67.2-51.2-110.4-51.2-41.6 0-81.6 19.2-110.4 51.2-17.6 19.2-43.2 30.4-70.4 30.4s-52.8-11.2-70.4-32c-27.2-32-67.2-49.6-108.8-49.6-44.8 0-89.6 22.4-115.2 59.2-8 11.2-6.4 25.6 4.8 33.6s25.6 6.4 33.6-4.8c17.6-25.6 46.4-38.4 76.8-38.4 28.8 0 54.4 12.8 73.6 33.6 27.2 30.4 67.2 48 107.2 48s78.4-17.6 105.6-46.4c19.2-22.4 44.8-35.2 73.6-35.2s56 12.8 73.6 35.2c28.8 30.4 67.2 46.4 105.6 46.4 40 0 78.4-16 105.6-46.4 19.2-24 44.8-35.2 75.2-35.2s59.2 14.4 76.8 38.4c8 11.2 22.4 12.8 33.6 4.8s12.8-22.4 4.8-33.6c-25.6-35.2-70.4-57.6-115.2-57.6zM464 512c0-26.51-21.49-48-48-48s-48 21.49-48 48c0 26.51 21.49 48 48 48s48-21.49 48-48zM656 512c0-26.51-21.49-48-48-48s-48 21.49-48 48c0 26.51 21.49 48 48 48s48-21.49 48-48zM896 120h-768c-12.8 0-24 11.2-24 24s11.2 24 24 24h768c12.8 0 24-11.2 24-24s-11.2-24-24-24zM899.2-8h-768c-12.8 0-24 11.2-24 24s11.2 24 24 24h768c12.8 0 24-11.2 24-24s-11.2-24-24-24z" />
<glyph unicode="&#xe644;" d="M864 248h-704c-11.2 0-20.8 8-24 19.2l-128 608c-1.6 12.8 6.4 25.6 19.2 28.8s25.6-4.8 28.8-19.2l123.2-588.8h665.6l123.2 588.8c3.2 12.8 16 20.8 28.8 19.2s20.8-16 19.2-28.8l-128-608c-3.2-11.2-12.8-19.2-24-19.2zM872 696c-43.2 0-83.2 19.2-110.4 51.2-17.6 19.2-41.6 28.8-68.8 28.8s-51.2-11.2-70.4-30.4c-27.2-32-67.2-51.2-110.4-51.2-41.6 0-81.6 19.2-110.4 51.2-17.6 19.2-43.2 30.4-70.4 30.4s-52.8-11.2-70.4-32c-27.2-32-67.2-49.6-108.8-49.6-44.8 0-89.6 22.4-115.2 59.2-8 11.2-6.4 25.6 4.8 33.6s25.6 6.4 33.6-4.8c17.6-25.6 46.4-38.4 76.8-38.4 28.8 0 54.4 12.8 73.6 33.6 27.2 30.4 67.2 48 107.2 48s78.4-17.6 105.6-46.4c19.2-22.4 44.8-35.2 73.6-35.2s56 12.8 73.6 35.2c28.8 30.4 67.2 46.4 105.6 46.4 40 0 78.4-16 105.6-46.4 19.2-24 44.8-35.2 75.2-35.2s59.2 14.4 76.8 38.4c8 11.2 22.4 12.8 33.6 4.8s12.8-22.4 4.8-33.6c-25.6-35.2-70.4-57.6-115.2-57.6zM896 120h-768c-12.8 0-24 11.2-24 24s11.2 24 24 24h768c12.8 0 24-11.2 24-24s-11.2-24-24-24zM896-8h-768c-12.8 0-24 11.2-24 24s11.2 24 24 24h768c12.8 0 24-11.2 24-24s-11.2-24-24-24z" />
<glyph unicode="&#xe645;" d="M864 120h-704c-11.2 0-20.8 8-24 19.2l-128 608c-3.2 12.8 4.8 25.6 19.2 28.8 12.8 3.2 25.6-4.8 28.8-19.2l123.2-588.8h665.6l123.2 588.8c3.2 12.8 16 20.8 28.8 19.2 12.8-3.2 20.8-16 19.2-28.8l-128-608c-3.2-11.2-12.8-19.2-24-19.2zM872 568c-43.2 0-83.2 19.2-110.4 51.2-17.6 19.2-41.6 28.8-68.8 28.8s-51.2-11.2-70.4-30.4c-27.2-32-67.2-51.2-110.4-51.2-41.6 0-81.6 19.2-110.4 51.2-17.6 19.2-43.2 30.4-70.4 30.4s-52.8-11.2-70.4-32c-27.2-32-67.2-49.6-108.8-49.6-44.8 0-89.6 22.4-115.2 59.2-8 11.2-6.4 25.6 4.8 33.6s25.6 6.4 33.6-4.8c17.6-25.6 46.4-38.4 76.8-38.4 28.8 0 54.4 12.8 73.6 33.6 27.2 30.4 67.2 48 107.2 48s78.4-17.6 105.6-46.4c19.2-22.4 44.8-35.2 73.6-35.2s56 12.8 73.6 35.2c28.8 30.4 67.2 46.4 105.6 46.4 40 0 78.4-16 105.6-46.4 19.2-24 44.8-35.2 75.2-35.2s59.2 14.4 76.8 38.4c8 11.2 22.4 12.8 33.6 4.8s12.8-22.4 4.8-33.6c-25.6-35.2-70.4-57.6-115.2-57.6zM464 464c0-26.51-21.49-48-48-48s-48 21.49-48 48c0 26.51 21.49 48 48 48s48-21.49 48-48zM656 464c0-26.51-21.49-48-48-48s-48 21.49-48 48c0 26.51 21.49 48 48 48s48-21.49 48-48zM464 288c0-26.51-21.49-48-48-48s-48 21.49-48 48c0 26.51 21.49 48 48 48s48-21.49 48-48zM656 288c0-26.51-21.49-48-48-48s-48 21.49-48 48c0 26.51 21.49 48 48 48s48-21.49 48-48z" />
<glyph unicode="&#xe646;" d="M864 120h-704c-11.2 0-20.8 8-24 19.2l-128 608c-3.2 12.8 4.8 25.6 19.2 28.8 12.8 3.2 25.6-4.8 28.8-19.2l123.2-588.8h665.6l123.2 588.8c3.2 12.8 16 20.8 28.8 19.2 12.8-3.2 20.8-16 19.2-28.8l-128-608c-3.2-11.2-12.8-19.2-24-19.2zM872 568c-43.2 0-83.2 19.2-110.4 51.2-17.6 19.2-41.6 28.8-68.8 28.8s-51.2-11.2-70.4-30.4c-27.2-32-67.2-51.2-110.4-51.2-41.6 0-81.6 19.2-110.4 51.2-17.6 19.2-43.2 30.4-70.4 30.4s-52.8-11.2-70.4-32c-27.2-32-67.2-49.6-108.8-49.6-44.8 0-89.6 22.4-115.2 59.2-8 11.2-6.4 25.6 4.8 33.6s25.6 6.4 33.6-4.8c17.6-25.6 46.4-38.4 76.8-38.4 28.8 0 54.4 12.8 73.6 33.6 27.2 30.4 67.2 48 107.2 48s78.4-17.6 105.6-46.4c19.2-22.4 44.8-35.2 73.6-35.2s56 12.8 73.6 35.2c28.8 30.4 67.2 46.4 105.6 46.4 40 0 78.4-16 105.6-46.4 19.2-24 44.8-35.2 75.2-35.2s59.2 14.4 76.8 38.4c8 11.2 22.4 12.8 33.6 4.8s12.8-22.4 4.8-33.6c-25.6-35.2-70.4-57.6-115.2-57.6zM464 288c0-26.51-21.49-48-48-48s-48 21.49-48 48c0 26.51 21.49 48 48 48s48-21.49 48-48zM656 288c0-26.51-21.49-48-48-48s-48 21.49-48 48c0 26.51 21.49 48 48 48s48-21.49 48-48zM560 464c0-26.51-21.49-48-48-48s-48 21.49-48 48c0 26.51 21.49 48 48 48s48-21.49 48-48zM752 464c0-26.51-21.49-48-48-48s-48 21.49-48 48c0 26.51 21.49 48 48 48s48-21.49 48-48zM368 464c0-26.51-21.49-48-48-48s-48 21.49-48 48c0 26.51 21.49 48 48 48s48-21.49 48-48z" />
<glyph unicode="&#xe647;" d="M864 120h-704c-11.2 0-20.8 8-24 19.2l-128 608c-3.2 12.8 4.8 25.6 19.2 28.8 12.8 3.2 25.6-4.8 28.8-19.2l123.2-588.8h665.6l123.2 588.8c3.2 12.8 16 20.8 28.8 19.2 12.8-3.2 20.8-16 19.2-28.8l-128-608c-3.2-11.2-12.8-19.2-24-19.2zM872 568c-43.2 0-83.2 19.2-110.4 51.2-17.6 19.2-41.6 28.8-68.8 28.8s-51.2-11.2-70.4-30.4c-27.2-32-67.2-51.2-110.4-51.2-41.6 0-81.6 19.2-110.4 51.2-17.6 19.2-43.2 30.4-70.4 30.4s-52.8-11.2-70.4-32c-27.2-32-67.2-49.6-108.8-49.6-44.8 0-89.6 22.4-115.2 59.2-8 11.2-6.4 25.6 4.8 33.6s25.6 6.4 33.6-4.8c17.6-25.6 46.4-38.4 76.8-38.4 28.8 0 54.4 12.8 73.6 33.6 27.2 30.4 67.2 48 107.2 48s78.4-17.6 105.6-46.4c19.2-22.4 44.8-35.2 73.6-35.2s56 12.8 73.6 35.2c28.8 30.4 67.2 46.4 105.6 46.4 40 0 78.4-16 105.6-46.4 19.2-24 44.8-35.2 75.2-35.2s59.2 14.4 76.8 38.4c8 11.2 22.4 12.8 33.6 4.8s12.8-22.4 4.8-33.6c-25.6-35.2-70.4-57.6-115.2-57.6zM560 464c0-26.51-21.49-48-48-48s-48 21.49-48 48c0 26.51 21.49 48 48 48s48-21.49 48-48zM752 464c0-26.51-21.49-48-48-48s-48 21.49-48 48c0 26.51 21.49 48 48 48s48-21.49 48-48zM368 464c0-26.51-21.49-48-48-48s-48 21.49-48 48c0 26.51 21.49 48 48 48s48-21.49 48-48zM560 288c0-26.51-21.49-48-48-48s-48 21.49-48 48c0 26.51 21.49 48 48 48s48-21.49 48-48zM752 288c0-26.51-21.49-48-48-48s-48 21.49-48 48c0 26.51 21.49 48 48 48s48-21.49 48-48zM368 288c0-26.51-21.49-48-48-48s-48 21.49-48 48c0 26.51 21.49 48 48 48s48-21.49 48-48z" />
<glyph unicode="&#xe648;" d="M864 120h-704c-11.2 0-20.8 8-24 19.2l-128 608c-3.2 12.8 4.8 25.6 19.2 28.8 12.8 3.2 25.6-4.8 28.8-19.2l123.2-588.8h665.6l123.2 588.8c3.2 12.8 16 20.8 28.8 19.2 12.8-3.2 20.8-16 19.2-28.8l-128-608c-3.2-11.2-12.8-19.2-24-19.2zM872 568c-43.2 0-83.2 19.2-110.4 51.2-17.6 19.2-41.6 28.8-68.8 28.8s-51.2-11.2-70.4-30.4c-27.2-32-67.2-51.2-110.4-51.2-41.6 0-81.6 19.2-110.4 51.2-17.6 19.2-43.2 30.4-70.4 30.4s-52.8-11.2-70.4-32c-27.2-32-67.2-49.6-108.8-49.6-44.8 0-89.6 22.4-115.2 59.2-8 11.2-6.4 25.6 4.8 33.6s25.6 6.4 33.6-4.8c17.6-25.6 46.4-38.4 76.8-38.4 28.8 0 54.4 12.8 73.6 33.6 27.2 30.4 67.2 48 107.2 48s78.4-17.6 105.6-46.4c19.2-22.4 44.8-35.2 73.6-35.2s56 12.8 73.6 35.2c28.8 30.4 67.2 46.4 105.6 46.4 40 0 78.4-16 105.6-46.4 19.2-24 44.8-35.2 75.2-35.2s59.2 14.4 76.8 38.4c8 11.2 22.4 12.8 33.6 4.8s12.8-22.4 4.8-33.6c-25.6-35.2-70.4-57.6-115.2-57.6zM560 384c0-26.51-21.49-48-48-48s-48 21.49-48 48c0 26.51 21.49 48 48 48s48-21.49 48-48zM752 384c0-26.51-21.49-48-48-48s-48 21.49-48 48c0 26.51 21.49 48 48 48s48-21.49 48-48zM368 384c0-26.51-21.49-48-48-48s-48 21.49-48 48c0 26.51 21.49 48 48 48s48-21.49 48-48z" />
<glyph unicode="&#xe649;" d="M864 184h-704c-11.2 0-20.8 8-24 19.2l-128 608c-1.6 12.8 6.4 25.6 19.2 28.8s25.6-4.8 28.8-19.2l123.2-588.8h665.6l123.2 588.8c3.2 12.8 16 20.8 28.8 19.2 12.8-3.2 20.8-16 19.2-28.8l-128-608c-3.2-11.2-12.8-19.2-24-19.2zM720 464c-27.2 0-48 20.8-48 48s20.8 48 48 48 48-20.8 48-48-20.8-48-48-48zM720 528c-9.6 0-16-6.4-16-16s6.4-16 16-16 16 6.4 16 16-6.4 16-16 16zM872 632c-43.2 0-83.2 19.2-110.4 51.2-17.6 19.2-41.6 28.8-68.8 28.8s-51.2-11.2-70.4-30.4c-27.2-32-67.2-51.2-110.4-51.2-41.6 0-81.6 19.2-110.4 51.2-17.6 19.2-43.2 30.4-70.4 30.4s-52.8-11.2-70.4-32c-27.2-32-67.2-49.6-108.8-49.6-44.8 0-89.6 22.4-115.2 59.2-8 11.2-6.4 25.6 4.8 33.6s25.6 6.4 33.6-4.8c17.6-25.6 46.4-38.4 76.8-38.4 28.8 0 54.4 12.8 73.6 33.6 27.2 30.4 67.2 48 107.2 48s78.4-17.6 105.6-46.4c19.2-22.4 44.8-35.2 73.6-35.2s56 12.8 73.6 35.2c28.8 30.4 67.2 46.4 105.6 46.4 40 0 78.4-16 105.6-46.4 19.2-24 44.8-35.2 75.2-35.2s59.2 14.4 76.8 38.4c8 11.2 22.4 12.8 33.6 4.8s12.8-22.4 4.8-33.6c-25.6-35.2-70.4-57.6-115.2-57.6zM552 328c-44.8 0-80 35.2-80 80v64c0 44.8 35.2 80 80 80s80-35.2 80-80v-64c0-44.8-35.2-80-80-80zM552 504c-17.6 0-32-14.4-32-32v-64c0-17.6 14.4-32 32-32s32 14.4 32 32v64c0 17.6-14.4 32-32 32zM360 328c-33.6 0-62.4 20.8-75.2 51.2-4.8 12.8 1.6 25.6 14.4 30.4s25.6-1.6 30.4-14.4c4.8-12.8 16-20.8 30.4-20.8 17.6 0 32 14.4 32 32s-14.4 32-32 32h-8c-9.6 0-19.2 6.4-22.4 14.4s-1.6 19.2 4.8 25.6l22.4 22.4h-36.8c-12.8 0-24 11.2-24 24s11.2 24 24 24h96c9.6 0 19.2-6.4 22.4-14.4s1.6-19.2-4.8-25.6l-33.6-32c24-14.4 40-40 40-68.8 0-44.8-35.2-80-80-80zM896 56h-768c-12.8 0-24 11.2-24 24s11.2 24 24 24h768c12.8 0 24-11.2 24-24s-11.2-24-24-24z" />
<glyph unicode="&#xe64a;" d="M864 184h-704c-11.2 0-20.8 8-24 19.2l-128 608c-1.6 12.8 6.4 25.6 19.2 28.8s25.6-4.8 28.8-19.2l123.2-588.8h665.6l123.2 588.8c3.2 12.8 16 20.8 28.8 19.2 12.8-3.2 20.8-16 19.2-28.8l-128-608c-3.2-11.2-12.8-19.2-24-19.2zM872 632c-43.2 0-83.2 19.2-110.4 51.2-17.6 19.2-41.6 28.8-68.8 28.8s-51.2-11.2-70.4-30.4c-27.2-32-67.2-51.2-110.4-51.2-41.6 0-81.6 19.2-110.4 51.2-17.6 19.2-43.2 30.4-70.4 30.4s-52.8-11.2-70.4-32c-27.2-32-67.2-49.6-108.8-49.6-44.8 0-89.6 22.4-115.2 59.2-8 11.2-6.4 25.6 4.8 33.6s25.6 4.8 33.6-4.8c17.6-24 46.4-38.4 76.8-38.4 28.8 0 54.4 12.8 73.6 33.6 27.2 30.4 67.2 48 107.2 48s78.4-17.6 105.6-46.4c19.2-22.4 44.8-35.2 73.6-35.2s56 12.8 73.6 35.2c28.8 30.4 67.2 46.4 105.6 46.4 40 0 78.4-16 105.6-46.4 19.2-24 44.8-35.2 75.2-35.2s59.2 14.4 76.8 38.4c8 11.2 22.4 12.8 33.6 4.8s12.8-22.4 4.8-33.6c-25.6-35.2-70.4-57.6-115.2-57.6zM520 328c-44.8 0-80 35.2-80 80v64c0 44.8 35.2 80 80 80s80-35.2 80-80v-64c0-44.8-35.2-80-80-80zM520 504c-17.6 0-32-14.4-32-32v-64c0-17.6 14.4-32 32-32s32 14.4 32 32v64c0 17.6-14.4 32-32 32zM712 328c-44.8 0-80 35.2-80 80v64c0 44.8 35.2 80 80 80 27.2 0 51.2-12.8 65.6-35.2 8-11.2 4.8-25.6-6.4-33.6s-25.6-4.8-33.6 6.4c-6.4 9.6-16 14.4-27.2 14.4-17.6 0-32-14.4-32-32v-64c0-17.6 14.4-32 32-32 8 0 17.6 3.2 22.4 9.6 9.6 9.6 24 9.6 33.6 0s9.6-24 0-33.6c-12.8-16-32-24-54.4-24zM328 328c-33.6 0-62.4 20.8-75.2 51.2-4.8 12.8 1.6 25.6 14.4 30.4s25.6-1.6 30.4-14.4c4.8-12.8 16-20.8 30.4-20.8 17.6 0 32 14.4 32 32s-14.4 32-32 32h-8c-9.6 0-19.2 6.4-22.4 14.4-3.2 9.6-1.6 19.2 4.8 25.6l22.4 22.4h-36.8c-12.8 0-24 11.2-24 24s11.2 24 24 24h96c9.6 0 19.2-6.4 22.4-14.4s1.6-19.2-4.8-25.6l-33.6-32c24-14.4 40-40 40-68.8 0-44.8-35.2-80-80-80zM896 56h-768c-12.8 0-24 11.2-24 24s11.2 24 24 24h768c12.8 0 24-11.2 24-24s-11.2-24-24-24z" />
<glyph unicode="&#xe64b;" d="M864 184h-704c-11.2 0-20.8 8-24 19.2l-128 608c-1.6 12.8 6.4 25.6 19.2 28.8s25.6-4.8 28.8-19.2l123.2-588.8h665.6l123.2 588.8c3.2 12.8 16 20.8 28.8 19.2 12.8-3.2 20.8-16 19.2-28.8l-128-608c-3.2-11.2-12.8-19.2-24-19.2zM720 464c-27.2 0-48 20.8-48 48s20.8 48 48 48 48-20.8 48-48-20.8-48-48-48zM720 528c-9.6 0-16-6.4-16-16s6.4-16 16-16 16 6.4 16 16-6.4 16-16 16zM872 632c-43.2 0-83.2 19.2-110.4 51.2-17.6 19.2-41.6 28.8-68.8 28.8s-51.2-11.2-70.4-30.4c-27.2-32-67.2-51.2-110.4-51.2-41.6 0-81.6 19.2-110.4 51.2-17.6 19.2-43.2 30.4-70.4 30.4s-52.8-11.2-70.4-32c-27.2-32-67.2-49.6-108.8-49.6-44.8 0-89.6 22.4-115.2 59.2-8 11.2-6.4 25.6 4.8 33.6s25.6 6.4 33.6-4.8c17.6-24 46.4-38.4 76.8-38.4 28.8 0 54.4 12.8 73.6 33.6 27.2 30.4 67.2 48 107.2 48s78.4-17.6 105.6-46.4c19.2-22.4 44.8-35.2 73.6-35.2s56 12.8 73.6 35.2c28.8 30.4 67.2 46.4 105.6 46.4 40 0 78.4-16 105.6-46.4 19.2-24 44.8-35.2 75.2-35.2s59.2 14.4 76.8 38.4c8 11.2 22.4 12.8 33.6 4.8s12.8-22.4 4.8-33.6c-25.6-35.2-70.4-57.6-115.2-57.6zM552 328c-44.8 0-80 35.2-80 80v64c0 44.8 35.2 80 80 80s80-35.2 80-80v-64c0-44.8-35.2-80-80-80zM552 504c-17.6 0-32-14.4-32-32v-64c0-17.6 14.4-32 32-32s32 14.4 32 32v64c0 17.6-14.4 32-32 32zM416 328c-12.8 0-24 11.2-24 24v176c0 12.8 11.2 24 24 24s24-11.2 24-24v-176c0-12.8-11.2-24-24-24zM416 376h-116.8c-8 0-16 4.8-20.8 11.2s-4.8 16-1.6 24l64 128c6.4 11.2 20.8 16 32 11.2 11.2-6.4 16-20.8 11.2-32l-46.4-92.8h78.4c12.8 0 24-11.2 24-24s-11.2-25.6-24-25.6zM896 56h-768c-12.8 0-24 11.2-24 24s11.2 24 24 24h768c12.8 0 24-11.2 24-24s-11.2-24-24-24z" />
<glyph unicode="&#xe64c;" d="M864 184h-704c-11.2 0-20.8 8-24 19.2l-128 608c-1.6 12.8 6.4 25.6 19.2 28.8s25.6-4.8 28.8-19.2l123.2-588.8h665.6l123.2 588.8c3.2 12.8 16 20.8 28.8 19.2 12.8-3.2 20.8-16 19.2-28.8l-128-608c-3.2-11.2-12.8-19.2-24-19.2zM872 632c-43.2 0-83.2 19.2-110.4 51.2-17.6 19.2-41.6 28.8-68.8 28.8s-51.2-11.2-70.4-30.4c-27.2-32-67.2-51.2-110.4-51.2-41.6 0-81.6 19.2-110.4 51.2-17.6 19.2-43.2 30.4-70.4 30.4s-52.8-11.2-70.4-32c-27.2-32-67.2-49.6-108.8-49.6-44.8 0-89.6 22.4-115.2 59.2-8 11.2-6.4 25.6 4.8 33.6s25.6 4.8 33.6-4.8c17.6-24 46.4-38.4 76.8-38.4 28.8 0 54.4 12.8 73.6 33.6 27.2 30.4 67.2 48 107.2 48s78.4-17.6 105.6-46.4c19.2-22.4 44.8-35.2 73.6-35.2s56 12.8 73.6 35.2c28.8 30.4 67.2 46.4 105.6 46.4 40 0 78.4-16 105.6-46.4 19.2-24 44.8-35.2 75.2-35.2s59.2 14.4 76.8 38.4c8 11.2 22.4 12.8 33.6 4.8s12.8-22.4 4.8-33.6c-25.6-35.2-70.4-57.6-115.2-57.6zM520 328c-44.8 0-80 35.2-80 80v64c0 44.8 35.2 80 80 80s80-35.2 80-80v-64c0-44.8-35.2-80-80-80zM520 504c-17.6 0-32-14.4-32-32v-64c0-17.6 14.4-32 32-32s32 14.4 32 32v64c0 17.6-14.4 32-32 32zM712 328c-44.8 0-80 35.2-80 80v64c0 44.8 35.2 80 80 80 27.2 0 51.2-12.8 65.6-35.2 8-11.2 4.8-25.6-6.4-33.6s-25.6-4.8-33.6 6.4c-6.4 9.6-16 14.4-27.2 14.4-17.6 0-32-14.4-32-32v-64c0-17.6 14.4-32 32-32 8 0 17.6 3.2 22.4 9.6 9.6 9.6 24 9.6 33.6 0s9.6-24 0-33.6c-12.8-16-32-24-54.4-24zM384 328c-12.8 0-24 11.2-24 24v176c0 12.8 11.2 24 24 24s24-11.2 24-24v-176c0-12.8-11.2-24-24-24zM384 376h-116.8c-8 0-16 4.8-20.8 11.2s-4.8 16-1.6 24l64 128c6.4 11.2 20.8 16 32 11.2 11.2-6.4 16-20.8 11.2-32l-46.4-92.8h78.4c12.8 0 24-11.2 24-24s-11.2-25.6-24-25.6zM896 56h-768c-12.8 0-24 11.2-24 24s11.2 24 24 24h768c12.8 0 24-11.2 24-24s-11.2-24-24-24z" />
<glyph unicode="&#xe64d;" d="M864 184h-704c-11.2 0-20.8 8-24 19.2l-128 608c-1.6 12.8 6.4 25.6 19.2 28.8s25.6-4.8 28.8-19.2l123.2-588.8h665.6l123.2 588.8c3.2 12.8 16 20.8 28.8 19.2 12.8-3.2 20.8-16 19.2-28.8l-128-608c-3.2-11.2-12.8-19.2-24-19.2zM720 464c-27.2 0-48 20.8-48 48s20.8 48 48 48 48-20.8 48-48-20.8-48-48-48zM720 528c-9.6 0-16-6.4-16-16s6.4-16 16-16 16 6.4 16 16-6.4 16-16 16zM872 632c-43.2 0-83.2 19.2-110.4 51.2-17.6 19.2-41.6 28.8-68.8 28.8s-51.2-11.2-70.4-30.4c-27.2-32-67.2-51.2-110.4-51.2-41.6 0-81.6 19.2-110.4 51.2-17.6 19.2-43.2 30.4-70.4 30.4s-52.8-11.2-70.4-32c-27.2-32-67.2-49.6-108.8-49.6-44.8 0-89.6 22.4-115.2 59.2-8 11.2-6.4 25.6 4.8 33.6s25.6 6.4 33.6-4.8c17.6-24 46.4-38.4 76.8-38.4 28.8 0 54.4 12.8 73.6 33.6 27.2 30.4 67.2 48 107.2 48s78.4-17.6 105.6-46.4c19.2-22.4 44.8-35.2 73.6-35.2s56 12.8 73.6 35.2c28.8 30.4 67.2 46.4 105.6 46.4 40 0 78.4-16 105.6-46.4 19.2-24 44.8-35.2 75.2-35.2s59.2 14.4 76.8 38.4c8 11.2 22.4 12.8 33.6 4.8s12.8-22.4 4.8-33.6c-25.6-35.2-70.4-57.6-115.2-57.6zM552 328c-44.8 0-80 35.2-80 80v64c0 44.8 35.2 80 80 80s80-35.2 80-80v-64c0-44.8-35.2-80-80-80zM552 504c-17.6 0-32-14.4-32-32v-64c0-17.6 14.4-32 32-32s32 14.4 32 32v64c0 17.6-14.4 32-32 32zM360 328c-27.2 0-54.4 14.4-68.8 38.4-6.4 11.2-3.2 25.6 8 33.6 11.2 6.4 25.6 3.2 33.6-8 6.4-9.6 16-16 27.2-16 17.6 0 32 14.4 32 32s-14.4 32-32 32h-48c-12.8 0-24 11.2-24 24v64c0 12.8 11.2 24 24 24h96c12.8 0 24-11.2 24-24s-11.2-24-24-24h-72v-16h24c44.8 0 80-35.2 80-80s-36.8-80-80-80zM896 56h-768c-12.8 0-24 11.2-24 24s11.2 24 24 24h768c12.8 0 24-11.2 24-24s-11.2-24-24-24z" />
<glyph unicode="&#xe64e;" d="M864 184h-704c-11.2 0-20.8 8-24 19.2l-128 608c-1.6 12.8 6.4 25.6 19.2 28.8s25.6-4.8 28.8-19.2l123.2-588.8h665.6l123.2 588.8c3.2 12.8 16 20.8 28.8 19.2 12.8-3.2 20.8-16 19.2-28.8l-128-608c-3.2-11.2-12.8-19.2-24-19.2zM872 632c-43.2 0-83.2 19.2-110.4 51.2-17.6 19.2-41.6 28.8-68.8 28.8s-51.2-11.2-70.4-30.4c-27.2-32-67.2-51.2-110.4-51.2-41.6 0-81.6 19.2-110.4 51.2-17.6 19.2-43.2 30.4-70.4 30.4s-52.8-11.2-70.4-32c-27.2-32-67.2-49.6-108.8-49.6-44.8 0-89.6 22.4-115.2 59.2-8 11.2-6.4 25.6 4.8 33.6s25.6 6.4 33.6-4.8c17.6-25.6 46.4-38.4 76.8-38.4 28.8 0 54.4 12.8 73.6 33.6 27.2 30.4 67.2 48 107.2 48s78.4-17.6 105.6-46.4c19.2-22.4 44.8-35.2 73.6-35.2s56 12.8 73.6 35.2c28.8 30.4 67.2 46.4 105.6 46.4 40 0 78.4-16 105.6-46.4 19.2-24 44.8-35.2 75.2-35.2s59.2 14.4 76.8 38.4c8 11.2 22.4 12.8 33.6 4.8s12.8-22.4 4.8-33.6c-25.6-35.2-70.4-57.6-115.2-57.6zM520 328c-44.8 0-80 35.2-80 80v64c0 44.8 35.2 80 80 80s80-35.2 80-80v-64c0-44.8-35.2-80-80-80zM520 504c-17.6 0-32-14.4-32-32v-64c0-17.6 14.4-32 32-32s32 14.4 32 32v64c0 17.6-14.4 32-32 32zM712 328c-44.8 0-80 35.2-80 80v64c0 44.8 35.2 80 80 80 27.2 0 51.2-12.8 65.6-35.2 8-11.2 4.8-25.6-6.4-33.6s-25.6-4.8-33.6 6.4c-6.4 9.6-16 14.4-27.2 14.4-17.6 0-32-14.4-32-32v-64c0-17.6 14.4-32 32-32 8 0 17.6 3.2 22.4 9.6 9.6 9.6 24 9.6 33.6 0s9.6-24 0-33.6c-12.8-16-32-24-54.4-24zM328 328c-27.2 0-54.4 14.4-68.8 38.4-6.4 11.2-3.2 25.6 8 33.6 11.2 6.4 25.6 3.2 33.6-8 6.4-9.6 16-16 27.2-16 17.6 0 32 14.4 32 32s-14.4 32-32 32h-48c-12.8 0-24 11.2-24 24v64c0 12.8 11.2 24 24 24h96c12.8 0 24-11.2 24-24s-11.2-24-24-24h-72v-16h24c44.8 0 80-35.2 80-80s-35.2-80-80-80zM896 56h-768c-12.8 0-24 11.2-24 24s11.2 24 24 24h768c12.8 0 24-11.2 24-24s-11.2-24-24-24z" />
<glyph unicode="&#xe64f;" d="M864 184h-704c-11.2 0-20.8 8-24 19.2l-128 608c-1.6 12.8 6.4 25.6 19.2 28.8s25.6-4.8 28.8-19.2l123.2-588.8h665.6l123.2 588.8c3.2 12.8 16 20.8 28.8 19.2 12.8-3.2 20.8-16 19.2-28.8l-128-608c-3.2-11.2-12.8-19.2-24-19.2zM720 464c-27.2 0-48 20.8-48 48s20.8 48 48 48 48-20.8 48-48-20.8-48-48-48zM720 528c-9.6 0-16-6.4-16-16s6.4-16 16-16 16 6.4 16 16-6.4 16-16 16zM872 632c-43.2 0-83.2 19.2-110.4 51.2-17.6 19.2-41.6 28.8-68.8 28.8s-51.2-11.2-70.4-30.4c-27.2-32-67.2-51.2-110.4-51.2-41.6 0-81.6 19.2-110.4 51.2-17.6 19.2-43.2 30.4-70.4 30.4s-52.8-11.2-70.4-32c-27.2-32-67.2-49.6-108.8-49.6-44.8 0-89.6 22.4-115.2 59.2-8 11.2-6.4 25.6 4.8 33.6s25.6 6.4 33.6-4.8c17.6-25.6 46.4-38.4 76.8-38.4 28.8 0 54.4 12.8 73.6 33.6 27.2 30.4 67.2 48 107.2 48s78.4-17.6 105.6-46.4c19.2-22.4 44.8-35.2 73.6-35.2s56 12.8 73.6 35.2c28.8 30.4 67.2 46.4 105.6 46.4 40 0 78.4-16 105.6-46.4 19.2-24 44.8-35.2 75.2-35.2s59.2 14.4 76.8 38.4c8 11.2 22.4 12.8 33.6 4.8s12.8-22.4 4.8-33.6c-25.6-35.2-70.4-57.6-115.2-57.6zM552 328c-44.8 0-80 35.2-80 80v64c0 44.8 35.2 80 80 80s80-35.2 80-80v-64c0-44.8-35.2-80-80-80zM552 504c-17.6 0-32-14.4-32-32v-64c0-17.6 14.4-32 32-32s32 14.4 32 32v64c0 17.6-14.4 32-32 32zM304 384c-12.8 0-24 11.2-24 24v64c0 44.8 35.2 80 80 80 20.8 0 41.6-8 56-24 9.6-9.6 9.6-24 0-33.6s-24-9.6-33.6 0c-6.4 6.4-14.4 9.6-22.4 9.6-17.6 0-32-14.4-32-32v-64c0-12.8-11.2-24-24-24zM360 328c-44.8 0-80 35.2-80 80s35.2 80 80 80 80-35.2 80-80-35.2-80-80-80zM360 440c-17.6 0-32-14.4-32-32s14.4-32 32-32 32 14.4 32 32-14.4 32-32 32zM896 56h-768c-12.8 0-24 11.2-24 24s11.2 24 24 24h768c12.8 0 24-11.2 24-24s-11.2-24-24-24z" />
<glyph unicode="&#xe650;" d="M864 184h-704c-11.2 0-20.8 8-24 19.2l-128 608c-1.6 12.8 6.4 25.6 19.2 28.8s25.6-4.8 28.8-19.2l123.2-588.8h665.6l123.2 588.8c3.2 12.8 16 20.8 28.8 19.2 12.8-3.2 20.8-16 19.2-28.8l-128-608c-3.2-11.2-12.8-19.2-24-19.2zM872 632c-43.2 0-83.2 19.2-110.4 51.2-17.6 19.2-41.6 28.8-68.8 28.8s-51.2-11.2-70.4-30.4c-27.2-32-67.2-51.2-110.4-51.2-41.6 0-81.6 19.2-110.4 51.2-17.6 19.2-43.2 30.4-70.4 30.4s-52.8-11.2-70.4-32c-27.2-32-67.2-49.6-108.8-49.6-44.8 0-89.6 22.4-115.2 59.2-8 11.2-6.4 25.6 4.8 33.6s25.6 6.4 33.6-4.8c17.6-25.6 46.4-38.4 76.8-38.4 28.8 0 54.4 12.8 73.6 33.6 27.2 30.4 67.2 48 107.2 48s78.4-17.6 105.6-46.4c19.2-22.4 44.8-35.2 73.6-35.2s56 12.8 73.6 35.2c28.8 30.4 67.2 46.4 105.6 46.4 40 0 78.4-16 105.6-46.4 19.2-24 44.8-35.2 75.2-35.2s59.2 14.4 76.8 38.4c8 11.2 22.4 12.8 33.6 4.8s12.8-22.4 4.8-33.6c-25.6-35.2-70.4-57.6-115.2-57.6zM520 328c-44.8 0-80 35.2-80 80v64c0 44.8 35.2 80 80 80s80-35.2 80-80v-64c0-44.8-35.2-80-80-80zM520 504c-17.6 0-32-14.4-32-32v-64c0-17.6 14.4-32 32-32s32 14.4 32 32v64c0 17.6-14.4 32-32 32zM712 328c-44.8 0-80 35.2-80 80v64c0 44.8 35.2 80 80 80 27.2 0 51.2-12.8 65.6-35.2 8-11.2 4.8-25.6-6.4-33.6s-25.6-4.8-33.6 6.4c-6.4 9.6-16 14.4-27.2 14.4-17.6 0-32-14.4-32-32v-64c0-17.6 14.4-32 32-32 8 0 17.6 3.2 22.4 9.6 9.6 9.6 24 9.6 33.6 0s9.6-24 0-33.6c-12.8-16-32-24-54.4-24zM272 384c-12.8 0-24 11.2-24 24v64c0 44.8 35.2 80 80 80 20.8 0 41.6-8 56-24 9.6-9.6 9.6-24 0-33.6s-24-9.6-33.6 0c-6.4 6.4-14.4 9.6-22.4 9.6-17.6 0-32-14.4-32-32v-64c0-12.8-11.2-24-24-24zM328 328c-44.8 0-80 35.2-80 80s35.2 80 80 80 80-35.2 80-80-35.2-80-80-80zM328 440c-17.6 0-32-14.4-32-32s14.4-32 32-32 32 14.4 32 32-14.4 32-32 32zM896 56h-768c-12.8 0-24 11.2-24 24s11.2 24 24 24h768c12.8 0 24-11.2 24-24s-11.2-24-24-24z" />
<glyph unicode="&#xe651;" d="M864 184h-704c-11.2 0-20.8 8-24 19.2l-128 608c-1.6 12.8 6.4 25.6 19.2 28.8s25.6-4.8 28.8-19.2l123.2-588.8h665.6l123.2 588.8c3.2 12.8 16 20.8 28.8 19.2 12.8-3.2 20.8-16 19.2-28.8l-128-608c-3.2-11.2-12.8-19.2-24-19.2zM720 464c-27.2 0-48 20.8-48 48s20.8 48 48 48 48-20.8 48-48-20.8-48-48-48zM720 528c-9.6 0-16-6.4-16-16s6.4-16 16-16 16 6.4 16 16-6.4 16-16 16zM872 632c-43.2 0-83.2 19.2-110.4 51.2-17.6 19.2-41.6 28.8-68.8 28.8s-51.2-11.2-70.4-30.4c-27.2-32-67.2-51.2-110.4-51.2-41.6 0-81.6 19.2-110.4 51.2-17.6 19.2-43.2 30.4-70.4 30.4s-52.8-11.2-70.4-32c-27.2-32-67.2-49.6-108.8-49.6-44.8 0-89.6 22.4-115.2 59.2-8 11.2-6.4 25.6 4.8 33.6s25.6 6.4 33.6-4.8c17.6-24 46.4-38.4 76.8-38.4 28.8 0 54.4 12.8 73.6 33.6 27.2 30.4 67.2 48 107.2 48s78.4-17.6 105.6-46.4c19.2-22.4 44.8-35.2 73.6-35.2s56 12.8 73.6 35.2c28.8 30.4 67.2 46.4 105.6 46.4 40 0 78.4-16 105.6-46.4 19.2-24 44.8-35.2 75.2-35.2s59.2 14.4 76.8 38.4c8 11.2 22.4 12.8 33.6 4.8s12.8-22.4 4.8-33.6c-25.6-35.2-70.4-57.6-115.2-57.6zM552 328c-44.8 0-80 35.2-80 80v64c0 44.8 35.2 80 80 80s80-35.2 80-80v-64c0-44.8-35.2-80-80-80zM552 504c-17.6 0-32-14.4-32-32v-64c0-17.6 14.4-32 32-32s32 14.4 32 32v64c0 17.6-14.4 32-32 32zM352 328c-3.2 0-4.8 0-8 1.6-12.8 4.8-19.2 17.6-14.4 30.4l52.8 144h-62.4c-12.8 0-24 11.2-24 24s11.2 24 24 24h96c8 0 14.4-3.2 19.2-9.6s4.8-14.4 3.2-22.4l-64-176c-3.2-9.6-12.8-16-22.4-16zM880 56h-768c-12.8 0-24 11.2-24 24s11.2 24 24 24h768c12.8 0 24-11.2 24-24s-11.2-24-24-24z" />
<glyph unicode="&#xe652;" d="M864 184h-704c-11.2 0-20.8 8-24 19.2l-128 608c-1.6 12.8 6.4 25.6 19.2 28.8s25.6-4.8 28.8-19.2l123.2-588.8h665.6l123.2 588.8c3.2 12.8 16 20.8 28.8 19.2 12.8-3.2 20.8-16 19.2-28.8l-128-608c-3.2-11.2-12.8-19.2-24-19.2zM872 632c-43.2 0-83.2 19.2-110.4 51.2-17.6 19.2-41.6 28.8-68.8 28.8s-51.2-11.2-70.4-30.4c-27.2-32-67.2-51.2-110.4-51.2-41.6 0-81.6 19.2-110.4 51.2-17.6 19.2-43.2 30.4-70.4 30.4s-52.8-11.2-70.4-32c-27.2-32-67.2-49.6-108.8-49.6-44.8 0-89.6 22.4-115.2 59.2-8 11.2-6.4 25.6 4.8 33.6s25.6 6.4 33.6-4.8c17.6-24 46.4-38.4 76.8-38.4 28.8 0 54.4 12.8 73.6 33.6 27.2 30.4 67.2 48 107.2 48s78.4-17.6 105.6-46.4c19.2-22.4 44.8-35.2 73.6-35.2s56 12.8 73.6 35.2c28.8 30.4 67.2 46.4 105.6 46.4 40 0 78.4-16 105.6-46.4 19.2-24 44.8-35.2 75.2-35.2s59.2 14.4 76.8 38.4c8 11.2 22.4 12.8 33.6 4.8s12.8-22.4 4.8-33.6c-25.6-35.2-70.4-57.6-115.2-57.6zM520 328c-44.8 0-80 35.2-80 80v64c0 44.8 35.2 80 80 80s80-35.2 80-80v-64c0-44.8-35.2-80-80-80zM520 504c-17.6 0-32-14.4-32-32v-64c0-17.6 14.4-32 32-32s32 14.4 32 32v64c0 17.6-14.4 32-32 32zM712 328c-44.8 0-80 35.2-80 80v64c0 44.8 35.2 80 80 80 27.2 0 51.2-12.8 65.6-35.2 8-11.2 4.8-25.6-6.4-33.6s-25.6-4.8-33.6 6.4c-6.4 9.6-16 14.4-27.2 14.4-17.6 0-32-14.4-32-32v-64c0-17.6 14.4-32 32-32 8 0 17.6 3.2 22.4 9.6 9.6 9.6 24 9.6 33.6 0s9.6-24 0-33.6c-12.8-16-32-24-54.4-24zM320 328c-3.2 0-4.8 0-8 1.6-12.8 4.8-19.2 17.6-14.4 30.4l52.8 144h-62.4c-12.8 0-24 11.2-24 24s11.2 24 24 24h96c8 0 14.4-3.2 19.2-9.6s4.8-14.4 3.2-22.4l-64-176c-3.2-9.6-12.8-16-22.4-16zM896 56h-768c-12.8 0-24 11.2-24 24s11.2 24 24 24h768c12.8 0 24-11.2 24-24s-11.2-24-24-24z" />
<glyph unicode="&#xe653;" d="M864 184h-704c-11.2 0-20.8 8-24 19.2l-128 608c-1.6 12.8 6.4 25.6 19.2 28.8s25.6-4.8 28.8-19.2l123.2-588.8h665.6l123.2 588.8c3.2 12.8 16 20.8 28.8 19.2 12.8-3.2 20.8-16 19.2-28.8l-128-608c-3.2-11.2-12.8-19.2-24-19.2zM720 464c-27.2 0-48 20.8-48 48s20.8 48 48 48 48-20.8 48-48-20.8-48-48-48zM720 528c-9.6 0-16-6.4-16-16s6.4-16 16-16 16 6.4 16 16-6.4 16-16 16zM872 632c-43.2 0-83.2 19.2-110.4 51.2-17.6 19.2-41.6 28.8-68.8 28.8s-51.2-11.2-70.4-30.4c-27.2-32-67.2-51.2-110.4-51.2-41.6 0-81.6 19.2-110.4 51.2-17.6 19.2-43.2 30.4-70.4 30.4s-52.8-11.2-70.4-32c-27.2-32-67.2-49.6-108.8-49.6-44.8 0-89.6 22.4-115.2 59.2-8 11.2-6.4 25.6 4.8 33.6s25.6 6.4 33.6-4.8c17.6-25.6 46.4-38.4 76.8-38.4 28.8 0 54.4 12.8 73.6 33.6 27.2 30.4 67.2 48 107.2 48s78.4-17.6 105.6-46.4c19.2-22.4 44.8-35.2 73.6-35.2s56 12.8 73.6 35.2c28.8 30.4 67.2 46.4 105.6 46.4 40 0 78.4-16 105.6-46.4 19.2-24 44.8-35.2 75.2-35.2s59.2 14.4 76.8 38.4c8 11.2 22.4 12.8 33.6 4.8s12.8-22.4 4.8-33.6c-25.6-35.2-70.4-57.6-115.2-57.6zM360 328c-20.8 0-41.6 8-56 24-9.6 9.6-9.6 24 0 33.6s24 9.6 33.6 0c6.4-6.4 14.4-9.6 22.4-9.6 17.6 0 32 14.4 32 32v64c0 12.8 11.2 24 24 24s24-11.2 24-24v-64c0-44.8-35.2-80-80-80zM360 392c-44.8 0-80 35.2-80 80s35.2 80 80 80 80-35.2 80-80-35.2-80-80-80zM360 504c-17.6 0-32-14.4-32-32s14.4-32 32-32 32 14.4 32 32-14.4 32-32 32zM544 328c-28.8 0-54.4 14.4-68.8 38.4-6.4 11.2-3.2 25.6 8 33.6 11.2 6.4 25.6 3.2 33.6-8 6.4-9.6 16-16 27.2-16 17.6 0 32 14.4 32 32s-14.4 32-32 32h-48c-12.8 0-24 11.2-24 24v64c0 12.8 11.2 24 24 24h96c12.8 0 24-11.2 24-24s-11.2-24-24-24h-72v-16h24c44.8 0 80-35.2 80-80s-35.2-80-80-80zM896 56h-768c-12.8 0-24 11.2-24 24s11.2 24 24 24h768c12.8 0 24-11.2 24-24s-11.2-24-24-24z" />
<glyph unicode="&#xe654;" d="M864 184h-704c-11.2 0-20.8 8-24 19.2l-128 608c-1.6 12.8 6.4 25.6 19.2 28.8s25.6-4.8 28.8-19.2l123.2-588.8h665.6l123.2 588.8c3.2 12.8 16 20.8 28.8 19.2 12.8-3.2 20.8-16 19.2-28.8l-128-608c-3.2-11.2-12.8-19.2-24-19.2zM872 632c-43.2 0-83.2 19.2-110.4 51.2-17.6 19.2-41.6 28.8-68.8 28.8s-51.2-11.2-70.4-30.4c-27.2-32-67.2-51.2-110.4-51.2-41.6 0-81.6 19.2-110.4 51.2-17.6 19.2-43.2 30.4-70.4 30.4s-52.8-11.2-70.4-32c-27.2-32-67.2-49.6-108.8-49.6-44.8 0-89.6 22.4-115.2 59.2-8 11.2-6.4 25.6 4.8 33.6s25.6 6.4 33.6-4.8c17.6-24 46.4-38.4 76.8-38.4 28.8 0 54.4 12.8 73.6 33.6 27.2 30.4 67.2 48 107.2 48s78.4-17.6 105.6-46.4c19.2-22.4 44.8-35.2 73.6-35.2s56 12.8 73.6 35.2c28.8 30.4 67.2 46.4 105.6 46.4 40 0 78.4-16 105.6-46.4 19.2-24 44.8-35.2 75.2-35.2s59.2 14.4 76.8 38.4c8 11.2 22.4 12.8 33.6 4.8s12.8-22.4 4.8-33.6c-25.6-35.2-70.4-57.6-115.2-57.6zM712 328c-44.8 0-80 35.2-80 80v64c0 44.8 35.2 80 80 80 27.2 0 51.2-12.8 65.6-35.2 8-11.2 4.8-25.6-6.4-33.6s-25.6-4.8-33.6 6.4c-6.4 9.6-16 14.4-27.2 14.4-17.6 0-32-14.4-32-32v-64c0-17.6 14.4-32 32-32 8 0 17.6 3.2 22.4 9.6 9.6 9.6 24 9.6 33.6 0s9.6-24 0-33.6c-12.8-16-32-24-54.4-24zM336 328c-20.8 0-41.6 8-56 24-9.6 9.6-9.6 24 0 33.6s24 9.6 33.6 0c6.4-6.4 14.4-9.6 22.4-9.6 17.6 0 32 14.4 32 32v64c0 12.8 11.2 24 24 24s24-11.2 24-24v-64c0-44.8-35.2-80-80-80zM336 392c-44.8 0-80 35.2-80 80s35.2 80 80 80 80-35.2 80-80-35.2-80-80-80zM336 504c-17.6 0-32-14.4-32-32s14.4-32 32-32 32 14.4 32 32-14.4 32-32 32zM520 328c-27.2 0-54.4 14.4-68.8 38.4-6.4 11.2-3.2 25.6 8 33.6 11.2 6.4 25.6 3.2 33.6-8 6.4-9.6 16-16 27.2-16 17.6 0 32 14.4 32 32s-14.4 32-32 32h-48c-12.8 0-24 11.2-24 24v64c0 12.8 11.2 24 24 24h96c12.8 0 24-11.2 24-24s-11.2-24-24-24h-72v-16h24c44.8 0 80-35.2 80-80s-35.2-80-80-80zM896 56h-768c-12.8 0-24 11.2-24 24s11.2 24 24 24h768c12.8 0 24-11.2 24-24s-11.2-24-24-24z" />
</font>
</defs>
</svg>
